<svg width="2048" height="2048" viewBox="0 0 2048 2048" xmlns="http://www.w3.org/2000/svg">
<g stroke="rgb(0, 0, 0)" stroke-width="0.6" stroke-linecap="round" stroke-linejoin="round" fill="transparent">
<path d="M1036,1062 L1069,1087 L1057,1048 L1024,1024 Z M1036,1062 L1024,1101 L1011,1062 L1024,1024 Z M990,1048 L978,1087 L1011,1062 L1024,1024 Z M990,1048 L949,1048 L983,1024 L1024,1024 Z M990,999 L1024,1024 L1011,985 L978,960 Z M990,999 L949,999 L983,1024 L1024,1024 Z M1036,985 L1024,1024 L1011,985 L1024,946 Z M1036,985 L1024,1024 L1057,999 L1069,960 Z M1064,1024 L1024,1024 L1057,999 L1098,999 Z M1064,1024 L1024,1024 L1057,1048 L1098,1048 Z M904,985 L863,985 L830,960 L870,960 Z M904,1062 L863,1062 L830,1087 L870,1087 Z M875,1024 L863,1062 L850,1024 L863,985 Z M830,1087 L796,1062 L784,1024 L817,1048 Z M842,1125 L830,1164 L817,1125 L830,1087 Z M883,1125 L916,1150 L904,1111 L870,1087 Z M949,1125 L937,1164 L904,1189 L916,1150 Z M1024,1150 L1011,1189 L1024,1227 L1036,1189 Z M978,1164 L937,1164 L970,1189 L1011,1189 Z M904,1189 L937,1213 L949,1252 L916,1227 Z M1024,1227 L983,1227 L949,1252 L990,1252 Z M1024,1276 L1011,1315 L1024,1354 L1036,1315 Z M978,1291 L1011,1315 L1024,1354 L990,1329 Z M990,1329 L949,1329 L983,1354 L1024,1354 Z M1024,1354 L1011,1392 L1024,1431 L1036,1392 Z M1011,1392 L970,1392 L937,1417 L978,1417 Z M1064,1354 L1098,1378 L1110,1417 L1077,1392 Z M983,1354 L970,1392 L937,1417 L949,1378 Z M949,1456 L937,1494 L904,1519 L916,1480 Z M904,1392 L937,1417 L949,1456 L916,1431 Z M904,1392 L863,1392 L830,1417 L870,1417 Z M1024,1480 L1011,1519 L1024,1558 L1036,1519 Z M978,1494 L1011,1519 L1024,1558 L990,1533 Z M990,1533 L949,1533 L983,1558 L1024,1558 Z M870,1494 L830,1494 L863,1519 L904,1519 Z M863,1519 L850,1558 L863,1596 L875,1558 Z M863,1519 L850,1558 L817,1582 L830,1543 Z M830,1621 L817,1659 L830,1698 L842,1659 Z M830,1621 L817,1659 L784,1684 L796,1645 Z M784,1558 L817,1582 L830,1621 L796,1596 Z M796,1596 L755,1596 L722,1621 L763,1621 Z M710,1582 L697,1621 L710,1659 L722,1621 Z M710,1456 L743,1480 L755,1519 L722,1494 Z M710,1456 L697,1494 L710,1533 L722,1494 Z M710,1456 L697,1494 L664,1519 L676,1480 Z M710,1456 L669,1456 L636,1480 L676,1480 Z M676,1431 L636,1431 L669,1456 L710,1456 Z M751,1456 L710,1456 L743,1480 L784,1480 Z M590,1417 L549,1417 L516,1392 L557,1392 Z M590,1494 L623,1519 L636,1558 L602,1533 Z M590,1494 L549,1494 L516,1519 L557,1519 Z M549,1417 L536,1456 L549,1494 L561,1456 Z M536,1456 L503,1431 L516,1470 L549,1494 Z M516,1519 L503,1558 L516,1596 L528,1558 Z M516,1519 L475,1519 L442,1494 L482,1494 Z M442,1494 L429,1533 L396,1558 L408,1519 Z M396,1558 L355,1558 L322,1582 L363,1582 Z M429,1582 L396,1558 L408,1596 L442,1621 Z M503,1558 L462,1558 L429,1582 L470,1582 Z M516,1645 L503,1684 L516,1723 L528,1684 Z M470,1659 L503,1684 L516,1723 L482,1698 Z M408,1596 L396,1635 L363,1659 L375,1621 Z M396,1684 L383,1723 L396,1761 L408,1723 Z M396,1684 L355,1684 L322,1659 L363,1659 Z M289,1684 L276,1723 L309,1698 L322,1659 Z M516,1723 L549,1747 L561,1786 L528,1761 Z M516,1723 L503,1761 L516,1800 L528,1761 Z M516,1723 L503,1761 L470,1786 L482,1747 Z M516,1723 L475,1723 L442,1747 L482,1747 Z M590,1825 L623,1849 L636,1888 L602,1863 Z M590,1825 L549,1825 L516,1849 L557,1849 Z M697,1825 L656,1825 L623,1849 L664,1849 Z M710,1786 L697,1825 L710,1863 L722,1825 Z M676,1761 L636,1761 L669,1786 L710,1786 Z M669,1786 L656,1825 L623,1849 L636,1810 Z M763,1825 L722,1825 L755,1849 L796,1849 Z M784,1761 L817,1786 L830,1825 L796,1800 Z M784,1761 L743,1761 L710,1786 L751,1786 Z M830,1747 L817,1786 L830,1825 L842,1786 Z M755,1723 L743,1761 L710,1786 L722,1747 Z M710,1659 L743,1684 L755,1723 L722,1698 Z M710,1659 L669,1659 L636,1684 L676,1684 Z M676,1684 L664,1723 L676,1761 L689,1723 Z M590,1698 L549,1698 L516,1723 L557,1723 Z M557,1723 L516,1723 L549,1747 L590,1747 Z M561,1659 L549,1698 L516,1723 L528,1684 Z M623,1596 L656,1621 L669,1659 L636,1635 Z M636,1558 L623,1596 L590,1621 L602,1582 Z M569,1558 L528,1558 L561,1582 L602,1582 Z M676,1558 L636,1558 L669,1582 L710,1582 Z M763,1621 L722,1621 L755,1645 L796,1645 Z M904,1723 L937,1747 L949,1786 L916,1761 Z M904,1723 L863,1723 L830,1747 L870,1747 Z M916,1761 L904,1800 L870,1825 L883,1786 Z M949,1659 L937,1698 L904,1723 L916,1684 Z M883,1659 L842,1659 L875,1684 L916,1684 Z M870,1621 L904,1645 L916,1684 L883,1659 Z M904,1596 L863,1596 L830,1621 L870,1621 Z M990,1659 L949,1659 L983,1684 L1024,1684 Z M1024,1558 L1057,1582 L1069,1621 L1036,1596 Z M1024,1558 L1011,1596 L1024,1635 L1036,1596 Z M1024,1558 L1011,1596 L978,1621 L990,1582 Z M1024,1558 L983,1558 L949,1582 L990,1582 Z M1064,1558 L1024,1558 L1057,1582 L1098,1582 Z M1098,1533 L1057,1533 L1024,1558 L1064,1558 Z M1143,1596 L1184,1596 L1217,1621 L1177,1621 Z M1184,1519 L1217,1543 L1230,1582 L1197,1558 Z M1184,1519 L1172,1558 L1184,1596 L1197,1558 Z M1263,1558 L1251,1596 L1217,1621 L1230,1582 Z M1263,1480 L1304,1480 L1337,1456 L1296,1456 Z M1304,1480 L1292,1519 L1325,1494 L1337,1456 Z M1337,1456 L1371,1480 L1383,1519 L1350,1494 Z M1337,1456 L1325,1494 L1337,1533 L1350,1494 Z M1337,1456 L1378,1456 L1411,1431 L1371,1431 Z M1337,1456 L1378,1456 L1411,1480 L1371,1480 Z M1350,1417 L1337,1456 L1371,1431 L1383,1392 Z M1263,1431 L1304,1431 L1337,1456 L1296,1456 Z M1217,1417 L1205,1456 L1217,1494 L1230,1456 Z M1143,1392 L1131,1431 L1098,1456 L1110,1417 Z M1143,1392 L1184,1392 L1217,1417 L1177,1417 Z M1177,1494 L1217,1494 L1184,1519 L1143,1519 Z M1098,1456 L1131,1480 L1143,1519 L1110,1494 Z M1069,1494 L1057,1533 L1024,1558 L1036,1519 Z M1077,1392 L1036,1392 L1069,1417 L1110,1417 Z M1098,1329 L1057,1329 L1024,1354 L1064,1354 Z M1143,1315 L1184,1315 L1217,1291 L1177,1291 Z M1184,1315 L1172,1354 L1184,1392 L1197,1354 Z M1197,1354 L1184,1392 L1217,1368 L1230,1329 Z M1217,1291 L1251,1315 L1263,1354 L1230,1329 Z M1251,1266 L1292,1266 L1325,1291 L1284,1291 Z M1251,1315 L1292,1315 L1325,1291 L1284,1291 Z M1230,1252 L1217,1291 L1251,1266 L1263,1227 Z M1143,1266 L1184,1266 L1217,1291 L1177,1291 Z M1069,1291 L1057,1329 L1024,1354 L1036,1315 Z M1064,1227 L1024,1227 L1057,1252 L1098,1252 Z M1110,1213 L1098,1252 L1131,1227 L1143,1189 Z M1143,1189 L1184,1189 L1217,1164 L1177,1164 Z M1077,1189 L1036,1189 L1069,1164 L1110,1164 Z M1098,1125 L1131,1150 L1143,1189 L1110,1164 Z M1143,1062 L1184,1062 L1217,1087 L1177,1087 Z M1143,1111 L1131,1150 L1164,1125 L1177,1087 Z M1217,1087 L1205,1125 L1217,1164 L1230,1125 Z M1230,1048 L1217,1087 L1251,1062 L1263,1024 Z M1217,1213 L1205,1252 L1217,1291 L1230,1252 Z M1263,1150 L1304,1150 L1337,1125 L1296,1125 Z M1325,1164 L1358,1189 L1371,1227 L1337,1203 Z M1304,1150 L1292,1189 L1325,1164 L1337,1125 Z M1337,1125 L1378,1125 L1411,1150 L1371,1150 Z M1371,1150 L1358,1189 L1371,1227 L1383,1189 Z M1350,1087 L1391,1087 L1424,1062 L1383,1062 Z M1263,1101 L1304,1101 L1337,1125 L1296,1125 Z M1391,1087 L1378,1125 L1411,1101 L1424,1062 Z M1411,1024 L1445,1048 L1457,1087 L1424,1062 Z M1411,1024 L1424,985 L1457,960 L1445,999 Z M1457,1087 L1498,1087 L1531,1062 L1490,1062 Z M1337,1048 L1325,1087 L1337,1125 L1350,1087 Z M1337,999 L1350,960 L1337,922 L1325,960 Z M1350,960 L1391,960 L1424,985 L1383,985 Z M1457,960 L1498,960 L1531,985 L1490,985 Z M1391,960 L1424,985 L1411,946 L1378,922 Z M1337,922 L1378,922 L1411,897 L1371,897 Z M1325,883 L1337,844 L1371,820 L1358,858 Z M1371,897 L1383,858 L1371,820 L1358,858 Z M1304,897 L1337,922 L1325,883 L1292,858 Z M1263,946 L1304,946 L1337,922 L1296,922 Z M1263,897 L1304,897 L1337,922 L1296,922 Z M1217,960 L1230,922 L1217,883 L1205,922 Z M1230,999 L1263,1024 L1251,985 L1217,960 Z M1143,985 L1184,985 L1217,960 L1177,960 Z M1143,936 L1177,960 L1164,922 L1131,897 Z M1098,922 L1110,883 L1143,858 L1131,897 Z M1024,897 L1036,858 L1024,820 L1011,858 Z M1143,858 L1184,858 L1217,883 L1177,883 Z M1077,858 L1036,858 L1069,883 L1110,883 Z M1064,820 L1024,820 L1057,795 L1098,795 Z M1110,834 L1143,858 L1131,820 L1098,795 Z M1024,820 L983,820 L949,795 L990,795 Z M1024,771 L1036,732 L1024,693 L1011,732 Z M1069,756 L1036,732 L1024,693 L1057,718 Z M1024,693 L1036,655 L1024,616 L1011,655 Z M1011,655 L970,655 L937,630 L978,630 Z M990,718 L949,718 L983,693 L1024,693 Z M1064,693 L1077,655 L1110,630 L1098,669 Z M983,693 L949,669 L937,630 L970,655 Z M904,655 L916,616 L949,591 L937,630 Z M904,655 L863,655 L830,630 L870,630 Z M863,732 L875,693 L863,655 L850,693 Z M830,756 L796,732 L784,693 L817,718 Z M817,718 L830,679 L863,655 L850,693 Z M796,781 L755,781 L722,756 L763,756 Z M870,756 L830,756 L863,732 L904,732 Z M904,781 L863,781 L830,756 L870,756 Z M978,756 L990,718 L1024,693 L1011,732 Z M904,858 L916,820 L949,795 L937,834 Z M978,883 L937,883 L970,858 L1011,858 Z M949,922 L916,897 L904,858 L937,883 Z M883,922 L870,960 L904,936 L916,897 Z M830,960 L817,999 L784,1024 L796,985 Z M842,922 L830,960 L817,922 L830,883 Z M755,1062 L743,1101 L710,1125 L722,1087 Z M755,985 L722,960 L710,922 L743,946 Z M722,960 L710,999 L697,960 L710,922 Z M710,922 L669,922 L636,897 L676,897 Z M722,883 L689,858 L676,820 L710,844 Z M697,960 L656,960 L623,985 L664,985 Z M669,922 L656,960 L623,985 L636,946 Z M636,1024 L602,999 L590,960 L623,985 Z M636,1024 L623,1062 L590,1087 L602,1048 Z M590,960 L549,960 L516,985 L557,985 Z M697,1087 L656,1087 L623,1062 L664,1062 Z M590,1087 L549,1087 L516,1062 L557,1062 Z M669,1125 L636,1101 L623,1062 L656,1087 Z M710,1125 L669,1125 L636,1150 L676,1150 Z M722,1164 L710,1203 L676,1227 L689,1189 Z M722,1087 L710,1125 L697,1087 L710,1048 Z M784,1101 L743,1101 L710,1125 L751,1125 Z M784,1150 L743,1150 L710,1125 L751,1125 Z M830,1213 L817,1252 L830,1291 L842,1252 Z M784,1227 L817,1252 L830,1291 L796,1266 Z M755,1189 L722,1164 L710,1125 L743,1150 Z M710,1252 L697,1291 L710,1329 L722,1291 Z M710,1252 L669,1252 L636,1227 L676,1227 Z M689,1189 L676,1227 L664,1189 L676,1150 Z M636,1227 L623,1266 L590,1291 L602,1252 Z M623,1315 L590,1291 L602,1329 L636,1354 Z M710,1329 L669,1329 L636,1354 L676,1354 Z M763,1291 L722,1291 L755,1315 L796,1315 Z M796,1266 L755,1266 L722,1291 L763,1291 Z M830,1291 L817,1329 L784,1354 L796,1315 Z M817,1329 L850,1354 L863,1392 L830,1368 Z M863,1315 L850,1354 L863,1392 L875,1354 Z M870,1291 L830,1291 L863,1315 L904,1315 Z M904,1266 L863,1266 L830,1291 L870,1291 Z M875,1227 L863,1266 L830,1291 L842,1252 Z M830,1417 L817,1456 L830,1494 L842,1456 Z M784,1431 L743,1431 L710,1456 L751,1456 Z M755,1392 L743,1431 L710,1456 L722,1417 Z M710,1378 L697,1417 L710,1456 L722,1417 Z M664,1392 L697,1417 L710,1456 L676,1431 Z M602,1329 L590,1368 L557,1392 L569,1354 Z M602,1329 L561,1329 L528,1354 L569,1354 Z M516,1315 L503,1354 L516,1392 L528,1354 Z M516,1392 L503,1431 L470,1456 L482,1417 Z M516,1392 L475,1392 L442,1417 L482,1417 Z M503,1354 L462,1354 L429,1329 L470,1329 Z M462,1354 L429,1329 L442,1368 L475,1392 Z M396,1354 L383,1392 L396,1431 L408,1392 Z M396,1354 L355,1354 L322,1329 L363,1329 Z M396,1431 L355,1431 L322,1456 L363,1456 Z M322,1456 L309,1494 L276,1519 L289,1480 Z M309,1417 L276,1392 L289,1431 L322,1456 Z M289,1480 L248,1480 L214,1456 L255,1456 Z M289,1431 L248,1431 L214,1456 L255,1456 Z M342,1519 L309,1494 L322,1533 L355,1558 Z M396,1480 L383,1519 L396,1558 L408,1519 Z M396,1480 L355,1480 L322,1456 L363,1456 Z M363,1582 L350,1621 L363,1659 L375,1621 Z M214,1582 L202,1621 L235,1596 L248,1558 Z M243,1621 L202,1621 L235,1596 L276,1596 Z M276,1645 L235,1645 L202,1621 L243,1621 Z M202,1543 L189,1582 L202,1621 L214,1582 Z M169,1519 L128,1519 L161,1494 L202,1494 Z M202,1417 L189,1456 L202,1494 L214,1456 Z M202,1417 L161,1417 L128,1392 L169,1392 Z M202,1291 L169,1266 L156,1227 L189,1252 Z M202,1291 L189,1329 L156,1354 L169,1315 Z M202,1291 L161,1291 L128,1315 L169,1315 Z M202,1291 L161,1291 L128,1266 L169,1266 Z M214,1329 L202,1368 L189,1329 L202,1291 Z M214,1252 L202,1291 L189,1252 L202,1213 Z M276,1266 L235,1266 L202,1291 L243,1291 Z M276,1315 L235,1315 L202,1291 L243,1291 Z M375,1291 L363,1329 L350,1291 L363,1252 Z M396,1227 L355,1227 L322,1252 L363,1252 Z M408,1189 L396,1227 L383,1189 L396,1150 Z M355,1227 L322,1203 L309,1164 L342,1189 Z M248,1227 L235,1266 L202,1291 L214,1252 Z M214,1125 L202,1164 L189,1125 L202,1087 Z M289,1150 L248,1150 L214,1125 L255,1125 Z M322,1125 L289,1101 L276,1062 L309,1087 Z M322,1125 L309,1164 L276,1189 L289,1150 Z M276,1062 L235,1062 L202,1087 L243,1087 Z M202,1087 L161,1087 L128,1062 L169,1062 Z M248,1024 L214,999 L202,960 L235,985 Z M248,1024 L235,1062 L202,1087 L214,1048 Z M202,960 L161,960 L128,985 L169,985 Z M181,1024 L169,1062 L156,1024 L169,985 Z M161,1087 L148,1125 L115,1150 L128,1111 Z M189,1125 L148,1125 L115,1150 L156,1150 Z M128,1189 L95,1164 L82,1125 L115,1150 Z M128,1189 L115,1227 L82,1252 L95,1213 Z M41,1125 L82,1125 L49,1150 L8,1150 Z M54,1087 L20,1062 L8,1024 L41,1048 Z M41,1048 L82,1048 L49,1024 L8,1024 Z M41,999 L82,999 L49,1024 L8,1024 Z M54,960 L41,999 L8,1024 L20,985 Z M41,922 L82,922 L49,897 L8,897 Z M128,858 L95,834 L82,795 L115,820 Z M128,858 L115,897 L82,922 L95,883 Z M189,922 L148,922 L115,897 L156,897 Z M161,960 L128,936 L115,897 L148,922 Z M214,922 L202,960 L189,922 L202,883 Z M248,820 L214,795 L202,756 L235,781 Z M289,897 L248,897 L214,922 L255,922 Z M276,781 L235,781 L202,756 L243,756 Z M355,820 L342,858 L309,883 L322,844 Z M396,820 L355,820 L322,795 L363,795 Z M408,858 L396,897 L383,858 L396,820 Z M396,897 L355,897 L322,922 L363,922 Z M322,922 L289,897 L276,858 L309,883 Z M322,922 L309,960 L276,985 L289,946 Z M276,985 L235,985 L202,960 L243,960 Z M396,1024 L355,1024 L322,1048 L363,1048 Z M396,1024 L355,1024 L322,999 L363,999 Z M375,960 L363,999 L350,960 L363,922 Z M408,985 L375,960 L363,922 L396,946 Z M442,960 L429,999 L396,1024 L408,985 Z M503,1024 L462,1024 L429,1048 L470,1048 Z M503,1024 L462,1024 L429,999 L470,999 Z M442,1087 L408,1062 L396,1024 L429,1048 Z M408,1062 L396,1101 L363,1125 L375,1087 Z M516,1189 L482,1164 L470,1125 L503,1150 Z M516,1189 L503,1227 L470,1252 L482,1213 Z M516,1189 L475,1189 L442,1213 L482,1213 Z M516,1189 L475,1189 L442,1164 L482,1164 Z M528,1227 L516,1266 L503,1227 L516,1189 Z M528,1150 L516,1189 L503,1150 L516,1111 Z M590,1164 L549,1164 L516,1189 L557,1189 Z M590,1213 L549,1213 L516,1189 L557,1189 Z M561,1125 L549,1164 L516,1189 L528,1150 Z M442,1291 L408,1266 L396,1227 L429,1252 Z M442,1291 L429,1329 L396,1354 L408,1315 Z M561,1252 L528,1227 L516,1189 L549,1213 Z M396,1150 L355,1150 L322,1125 L363,1125 Z M375,1087 L363,1125 L350,1087 L363,1048 Z M528,1024 L516,1062 L503,1024 L516,985 Z M561,922 L528,897 L516,858 L549,883 Z M528,897 L516,936 L503,897 L516,858 Z M590,883 L549,883 L516,858 L557,858 Z M590,834 L549,834 L516,858 L557,858 Z M516,858 L482,834 L470,795 L503,820 Z M516,858 L503,897 L470,922 L482,883 Z M516,858 L475,858 L442,883 L482,883 Z M516,858 L475,858 L442,834 L482,834 Z M528,820 L516,858 L503,820 L516,781 Z M561,795 L549,834 L516,858 L528,820 Z M636,820 L602,795 L590,756 L623,781 Z M689,858 L676,897 L664,858 L676,820 Z M710,795 L722,756 L710,718 L697,756 Z M710,795 L669,795 L636,820 L676,820 Z M755,858 L743,897 L710,922 L722,883 Z M784,820 L796,781 L830,756 L817,795 Z M830,834 L842,795 L830,756 L817,795 Z M784,897 L743,897 L710,922 L751,922 Z M870,883 L830,883 L863,858 L904,858 Z M875,820 L842,795 L830,756 L863,781 Z M710,718 L669,718 L636,693 L676,693 Z M763,756 L722,756 L755,732 L796,732 Z M710,669 L722,630 L710,591 L697,630 Z M755,655 L722,630 L710,591 L743,616 Z M784,616 L743,616 L710,591 L751,591 Z M830,630 L842,591 L830,553 L817,591 Z M870,553 L830,553 L863,528 L904,528 Z M949,591 L916,567 L904,528 L937,553 Z M978,553 L990,514 L1024,489 L1011,528 Z M1024,567 L1036,528 L1024,489 L1011,528 Z M1069,553 L1036,528 L1024,489 L1057,514 Z M1098,591 L1110,553 L1143,528 L1131,567 Z M1098,514 L1057,514 L1024,489 L1064,489 Z M1177,553 L1217,553 L1184,528 L1143,528 Z M1184,528 L1197,489 L1184,451 L1172,489 Z M1184,528 L1197,489 L1230,465 L1217,504 Z M1217,426 L1230,388 L1217,349 L1205,388 Z M1217,426 L1230,388 L1263,363 L1251,402 Z M1263,489 L1230,465 L1217,426 L1251,451 Z M1251,451 L1292,451 L1325,426 L1284,426 Z M1337,465 L1350,426 L1337,388 L1325,426 Z M1337,465 L1378,465 L1411,489 L1371,489 Z M1304,567 L1337,591 L1325,553 L1292,528 Z M1337,591 L1350,553 L1337,514 L1325,553 Z M1337,591 L1350,553 L1383,528 L1371,567 Z M1337,591 L1378,591 L1411,567 L1371,567 Z M1337,591 L1378,591 L1411,616 L1371,616 Z M1350,630 L1383,655 L1371,616 L1337,591 Z M1263,616 L1304,616 L1337,591 L1296,591 Z M1263,567 L1304,567 L1337,591 L1296,591 Z M1217,630 L1230,591 L1217,553 L1205,591 Z M1143,655 L1110,630 L1098,591 L1131,616 Z M1143,655 L1184,655 L1217,630 L1177,630 Z M1143,732 L1184,732 L1217,756 L1177,756 Z M1098,718 L1057,718 L1024,693 L1064,693 Z M1184,732 L1197,693 L1184,655 L1172,693 Z M1217,756 L1230,718 L1263,693 L1251,732 Z M1197,693 L1230,718 L1217,679 L1184,655 Z M1251,732 L1292,732 L1325,756 L1284,756 Z M1292,655 L1304,616 L1337,591 L1325,630 Z M1337,669 L1350,630 L1337,591 L1325,630 Z M1337,718 L1378,718 L1411,693 L1371,693 Z M1337,795 L1350,756 L1337,718 L1325,756 Z M1337,795 L1378,795 L1411,820 L1371,820 Z M1251,781 L1292,781 L1325,756 L1284,756 Z M1230,795 L1263,820 L1251,781 L1217,756 Z M1411,820 L1424,781 L1457,756 L1445,795 Z M1424,732 L1457,756 L1445,718 L1411,693 Z M1445,718 L1457,679 L1490,655 L1478,693 Z M1445,718 L1486,718 L1519,693 L1478,693 Z M1457,630 L1498,630 L1531,655 L1490,655 Z M1531,655 L1544,616 L1577,591 L1565,630 Z M1531,655 L1572,655 L1605,630 L1565,630 Z M1544,693 L1585,693 L1618,718 L1577,718 Z M1498,630 L1511,591 L1498,553 L1486,591 Z M1585,693 L1618,718 L1605,679 L1572,655 Z M1651,693 L1664,655 L1651,616 L1639,655 Z M1651,693 L1692,693 L1725,718 L1684,718 Z M1651,616 L1692,616 L1725,591 L1684,591 Z M1725,591 L1738,553 L1771,528 L1758,567 Z M1738,630 L1771,655 L1758,616 L1725,591 Z M1758,567 L1799,567 L1833,591 L1792,591 Z M1758,616 L1799,616 L1833,591 L1792,591 Z M1705,528 L1738,553 L1725,514 L1692,489 Z M1651,489 L1692,489 L1725,465 L1684,465 Z M1651,567 L1664,528 L1651,489 L1639,528 Z M1651,567 L1692,567 L1725,591 L1684,591 Z M1605,553 L1618,514 L1651,489 L1639,528 Z M1531,528 L1544,489 L1531,451 L1519,489 Z M1531,528 L1572,528 L1605,553 L1565,553 Z M1544,489 L1585,489 L1618,465 L1577,465 Z M1457,553 L1498,553 L1531,528 L1490,528 Z M1424,528 L1457,553 L1445,514 L1411,489 Z M1411,489 L1424,451 L1457,426 L1445,465 Z M1445,465 L1486,465 L1519,489 L1478,489 Z M1391,426 L1424,451 L1411,412 L1378,388 Z M1337,388 L1304,363 L1292,324 L1325,349 Z M1337,388 L1378,388 L1411,363 L1371,363 Z M1371,363 L1383,324 L1371,286 L1358,324 Z M1284,426 L1325,426 L1292,402 L1251,402 Z M1164,388 L1205,388 L1172,363 L1131,363 Z M1177,426 L1143,402 L1131,363 L1164,388 Z M1098,388 L1110,349 L1143,324 L1131,363 Z M1098,388 L1057,388 L1024,363 L1064,363 Z M1143,324 L1110,300 L1098,261 L1131,286 Z M1143,324 L1184,324 L1217,300 L1177,300 Z M1131,286 L1143,247 L1177,222 L1164,261 Z M1077,324 L1036,324 L1069,300 L1110,300 Z M1024,363 L1036,324 L1024,286 L1011,324 Z M1011,324 L970,324 L937,300 L978,300 Z M990,388 L949,388 L983,363 L1024,363 Z M949,388 L916,363 L904,324 L937,349 Z M904,451 L863,451 L830,426 L870,426 Z M1024,489 L990,465 L978,426 L1011,451 Z M1024,489 L1036,451 L1024,412 L1011,451 Z M1024,489 L1036,451 L1069,426 L1057,465 Z M1024,489 L983,489 L949,465 L990,465 Z M1143,451 L1184,451 L1217,426 L1177,426 Z M1064,489 L1024,489 L1057,465 L1098,465 Z M990,514 L949,514 L983,489 L1024,489 Z M863,528 L830,504 L817,465 L850,489 Z M863,528 L875,489 L863,451 L850,489 Z M784,489 L796,451 L830,426 L817,465 Z M710,591 L676,567 L664,528 L697,553 Z M710,591 L722,553 L710,514 L697,553 Z M710,591 L722,553 L755,528 L743,567 Z M710,591 L669,591 L636,567 L676,567 Z M676,616 L636,616 L669,591 L710,591 Z M751,591 L710,591 L743,567 L784,567 Z M590,553 L602,514 L636,489 L623,528 Z M590,553 L549,553 L516,528 L557,528 Z M590,630 L549,630 L516,655 L557,655 Z M549,630 L561,591 L549,553 L536,591 Z M536,591 L549,553 L516,577 L503,616 Z M516,655 L482,630 L470,591 L503,616 Z M516,655 L475,655 L442,630 L482,630 Z M503,693 L462,693 L429,718 L470,718 Z M462,693 L475,655 L442,679 L429,718 Z M442,756 L408,732 L396,693 L429,718 Z M442,756 L429,795 L396,820 L408,781 Z M396,693 L408,655 L396,616 L383,655 Z M396,693 L355,693 L322,718 L363,718 Z M516,732 L528,693 L516,655 L503,693 Z M355,693 L322,669 L309,630 L342,655 Z M309,630 L322,591 L289,616 L276,655 Z M276,732 L235,732 L202,756 L243,756 Z M248,693 L235,732 L202,756 L214,718 Z M214,718 L202,756 L189,718 L202,679 Z M202,756 L169,732 L156,693 L189,718 Z M202,756 L189,795 L156,820 L169,781 Z M202,756 L161,756 L128,781 L169,781 Z M202,756 L161,756 L128,732 L169,732 Z M214,795 L202,834 L189,795 L202,756 Z M202,630 L214,591 L202,553 L189,591 Z M202,630 L161,630 L128,655 L169,655 Z M169,528 L128,528 L161,553 L202,553 Z M202,504 L214,465 L202,426 L189,465 Z M214,465 L248,489 L235,451 L202,426 Z M289,567 L248,567 L214,591 L255,591 Z M322,591 L289,567 L276,528 L309,553 Z M342,528 L355,489 L322,514 L309,553 Z M396,567 L408,528 L396,489 L383,528 Z M396,567 L355,567 L322,591 L363,591 Z M396,489 L355,489 L322,465 L363,465 Z M429,465 L442,426 L408,451 L396,489 Z M363,465 L375,426 L363,388 L350,426 Z M408,451 L375,426 L363,388 L396,412 Z M396,363 L408,324 L396,286 L383,324 Z M396,363 L355,363 L322,388 L363,388 Z M289,363 L322,388 L309,349 L276,324 Z M276,402 L235,402 L202,426 L243,426 Z M243,426 L202,426 L235,451 L276,451 Z M590,222 L602,184 L636,159 L623,198 Z M590,222 L549,222 L516,198 L557,198 Z M623,121 L590,96 L602,135 L636,159 Z M664,121 L676,82 L710,57 L697,96 Z M697,96 L710,57 L722,96 L710,135 Z M743,82 L710,57 L722,96 L755,121 Z M784,82 L743,82 L710,57 L751,57 Z M817,57 L830,19 L842,57 L830,96 Z M904,121 L916,82 L949,57 L937,96 Z M904,121 L863,121 L830,96 L870,96 Z M863,198 L875,159 L863,121 L850,159 Z M817,184 L830,145 L863,121 L850,159 Z M830,222 L796,198 L784,159 L817,184 Z M697,222 L656,222 L623,198 L664,198 Z M710,261 L722,222 L710,184 L697,222 Z M669,261 L636,237 L623,198 L656,222 Z M676,286 L636,286 L669,261 L710,261 Z M676,363 L689,324 L676,286 L664,324 Z M710,388 L722,349 L755,324 L743,363 Z M710,388 L669,388 L636,363 L676,363 Z M623,451 L636,412 L669,388 L656,426 Z M710,465 L722,426 L710,388 L697,426 Z M676,489 L636,489 L669,465 L710,465 Z M763,426 L722,426 L755,402 L796,402 Z M796,451 L755,451 L722,426 L763,426 Z M830,426 L796,402 L784,363 L817,388 Z M830,426 L842,388 L830,349 L817,388 Z M870,426 L883,388 L916,363 L904,402 Z M883,388 L842,388 L875,363 L916,363 Z M830,300 L842,261 L830,222 L817,261 Z M904,324 L916,286 L949,261 L937,300 Z M904,324 L863,324 L830,300 L870,300 Z M916,286 L883,261 L870,222 L904,247 Z M870,222 L830,222 L863,198 L904,198 Z M978,222 L990,184 L1023,159 L1011,198 Z M990,184 L949,184 L983,159 L1023,159 Z M1023,159 L990,135 L978,96 L1011,121 Z M1023,159 L1036,121 L1023,82 L1011,121 Z M1023,159 L1036,121 L1069,96 L1057,135 Z M1023,159 L983,159 L949,135 L990,135 Z M1064,159 L1023,159 L1057,135 L1098,135 Z M1098,184 L1057,184 L1023,159 L1064,159 Z M1143,121 L1110,96 L1098,57 L1131,82 Z M1143,121 L1184,121 L1217,96 L1177,96 Z M1184,198 L1197,159 L1184,121 L1172,159 Z M1230,184 L1197,159 L1184,121 L1217,145 Z M1263,82 L1304,82 L1337,57 L1296,57 Z M1304,82 L1292,121 L1325,96 L1337,57 Z M1350,96 L1337,135 L1325,96 L1337,57 Z M1230,57 L1217,96 L1205,57 L1217,19 Z M1383,121 L1350,96 L1337,57 L1371,82 Z M1424,121 L1411,159 L1445,135 L1457,96 Z M1350,222 L1391,222 L1424,198 L1383,198 Z M1337,261 L1350,222 L1337,184 L1325,222 Z M1284,222 L1325,222 L1292,198 L1251,198 Z M1217,222 L1230,184 L1263,159 L1251,198 Z M1177,222 L1217,222 L1184,198 L1143,198 Z M1217,300 L1230,261 L1217,222 L1205,261 Z M1263,286 L1230,261 L1217,222 L1251,247 Z M1263,286 L1304,286 L1337,261 L1296,261 Z M1292,324 L1304,286 L1337,261 L1325,300 Z M1371,286 L1411,286 L1378,261 L1337,261 Z M1378,261 L1391,222 L1424,198 L1411,237 Z M1457,300 L1498,300 L1531,324 L1490,324 Z M1457,222 L1424,198 L1411,159 L1445,184 Z M1457,222 L1498,222 L1531,198 L1490,198 Z M1498,300 L1531,324 L1519,286 L1486,261 Z M1531,324 L1544,286 L1531,247 L1519,286 Z M1531,324 L1544,286 L1577,261 L1565,300 Z M1531,324 L1572,324 L1605,300 L1565,300 Z M1531,324 L1572,324 L1605,349 L1565,349 Z M1544,363 L1577,388 L1565,349 L1531,324 Z M1457,349 L1498,349 L1531,324 L1490,324 Z M1486,388 L1498,349 L1531,324 L1519,363 Z M1531,402 L1544,363 L1531,324 L1519,363 Z M1618,465 L1651,489 L1639,451 L1605,426 Z M1639,451 L1651,412 L1684,388 L1672,426 Z M1651,363 L1664,324 L1651,286 L1639,324 Z M1651,363 L1692,363 L1725,388 L1684,388 Z M1758,363 L1771,324 L1738,349 L1725,388 Z M1771,402 L1812,402 L1845,426 L1804,426 Z M1833,465 L1845,426 L1812,451 L1799,489 Z M1804,426 L1845,426 L1812,451 L1771,451 Z M1845,504 L1858,465 L1845,426 L1833,465 Z M1845,630 L1858,591 L1845,553 L1833,591 Z M1845,630 L1886,630 L1919,655 L1878,655 Z M1771,732 L1812,732 L1845,756 L1804,756 Z M1692,693 L1705,655 L1738,630 L1725,669 Z M1684,795 L1697,756 L1684,718 L1672,756 Z M1605,756 L1618,718 L1651,693 L1639,732 Z M1618,795 L1651,820 L1639,781 L1605,756 Z M1531,732 L1544,693 L1531,655 L1519,693 Z M1498,834 L1531,858 L1519,820 L1486,795 Z M1531,858 L1544,820 L1531,781 L1519,820 Z M1531,858 L1544,820 L1577,795 L1565,834 Z M1531,858 L1572,858 L1605,834 L1565,834 Z M1531,858 L1572,858 L1605,883 L1565,883 Z M1544,897 L1577,922 L1565,883 L1531,858 Z M1457,883 L1498,883 L1531,858 L1490,858 Z M1457,834 L1498,834 L1531,858 L1490,858 Z M1486,922 L1498,883 L1531,858 L1519,897 Z M1531,936 L1544,897 L1531,858 L1519,897 Z M1544,1024 L1585,1024 L1618,999 L1577,999 Z M1544,1024 L1585,1024 L1618,1048 L1577,1048 Z M1519,1024 L1531,985 L1544,1024 L1531,1062 Z M1531,1111 L1519,1150 L1531,1189 L1544,1150 Z M1605,1087 L1618,1048 L1651,1024 L1639,1062 Z M1639,1062 L1672,1087 L1684,1125 L1651,1101 Z M1651,1024 L1692,1024 L1725,999 L1684,999 Z M1651,1024 L1692,1024 L1725,1048 L1684,1048 Z M1605,960 L1639,985 L1651,1024 L1618,999 Z M1639,985 L1651,946 L1684,922 L1672,960 Z M1651,897 L1664,858 L1651,820 L1639,858 Z M1651,897 L1692,897 L1725,922 L1684,922 Z M1672,960 L1684,922 L1697,960 L1684,999 Z M1725,922 L1758,946 L1771,985 L1738,960 Z M1725,922 L1738,883 L1771,858 L1758,897 Z M1758,897 L1799,897 L1833,922 L1792,922 Z M1705,858 L1738,883 L1725,844 L1692,820 Z M1651,820 L1692,820 L1725,795 L1684,795 Z M1771,781 L1812,781 L1845,756 L1804,756 Z M1799,820 L1812,781 L1845,756 L1833,795 Z M1845,756 L1858,718 L1845,679 L1833,718 Z M1845,756 L1858,718 L1891,693 L1878,732 Z M1845,756 L1886,756 L1919,732 L1878,732 Z M1845,756 L1886,756 L1919,781 L1878,781 Z M1858,795 L1891,820 L1878,781 L1845,756 Z M1812,732 L1845,756 L1833,718 L1799,693 Z M1878,528 L1919,528 L1886,553 L1845,553 Z M1919,858 L1952,883 L1965,922 L1932,897 Z M1919,858 L1932,820 L1965,795 L1952,834 Z M2006,922 L1965,922 L1998,897 L2039,897 Z M1993,960 L2027,985 L2039,1024 L2006,999 Z M1886,960 L1899,922 L1932,897 L1919,936 Z M1845,960 L1886,960 L1919,985 L1878,985 Z M1833,922 L1845,883 L1858,922 L1845,960 Z M1858,922 L1899,922 L1932,897 L1891,897 Z M1771,985 L1812,985 L1845,960 L1804,960 Z M1771,1062 L1812,1062 L1845,1087 L1804,1087 Z M1799,1024 L1833,1048 L1845,1087 L1812,1062 Z M1799,1024 L1812,985 L1845,960 L1833,999 Z M1845,1087 L1886,1087 L1919,1062 L1878,1062 Z M1866,1024 L1878,985 L1891,1024 L1878,1062 Z M1886,1087 L1919,1111 L1932,1150 L1899,1125 Z M2006,1048 L1965,1048 L1998,1024 L2039,1024 Z M1993,1087 L2006,1048 L2039,1024 L2027,1062 Z M2006,1125 L1965,1125 L1998,1150 L2039,1150 Z M1919,1189 L1952,1213 L1965,1252 L1932,1227 Z M1919,1189 L1932,1150 L1965,1125 L1952,1164 Z M1845,1291 L1878,1315 L1891,1354 L1858,1329 Z M1845,1291 L1833,1329 L1845,1368 L1858,1329 Z M1845,1291 L1886,1291 L1919,1266 L1878,1266 Z M1845,1291 L1886,1291 L1919,1315 L1878,1315 Z M1858,1252 L1845,1291 L1878,1266 L1891,1227 Z M1845,1213 L1833,1252 L1845,1291 L1858,1252 Z M1799,1227 L1833,1252 L1845,1291 L1812,1266 Z M1771,1266 L1812,1266 L1845,1291 L1804,1291 Z M1758,1150 L1799,1150 L1833,1125 L1792,1125 Z M1725,1125 L1758,1150 L1771,1189 L1738,1164 Z M1725,1125 L1738,1087 L1771,1062 L1758,1101 Z M1705,1189 L1692,1227 L1725,1203 L1738,1164 Z M1651,1150 L1639,1189 L1651,1227 L1664,1189 Z M1651,1150 L1692,1150 L1725,1125 L1684,1125 Z M1651,1227 L1692,1227 L1725,1252 L1684,1252 Z M1618,1252 L1605,1291 L1639,1266 L1651,1227 Z M1684,1252 L1672,1291 L1684,1329 L1697,1291 Z M1605,1291 L1639,1315 L1651,1354 L1618,1329 Z M1651,1354 L1639,1392 L1651,1431 L1664,1392 Z M1651,1354 L1692,1354 L1725,1329 L1684,1329 Z M1692,1354 L1725,1378 L1738,1417 L1705,1392 Z M1738,1417 L1725,1456 L1758,1431 L1771,1392 Z M1771,1315 L1812,1315 L1845,1291 L1804,1291 Z M1812,1315 L1799,1354 L1833,1329 L1845,1291 Z M1845,1417 L1833,1456 L1845,1494 L1858,1456 Z M1845,1417 L1886,1417 L1919,1392 L1878,1392 Z M1758,1480 L1799,1480 L1833,1456 L1792,1456 Z M1758,1431 L1799,1431 L1833,1456 L1792,1456 Z M1725,1456 L1758,1480 L1771,1519 L1738,1494 Z M1651,1480 L1639,1519 L1651,1558 L1664,1519 Z M1651,1480 L1692,1480 L1725,1456 L1684,1456 Z M1651,1431 L1692,1431 L1725,1456 L1684,1456 Z M1605,1494 L1639,1519 L1651,1558 L1618,1533 Z M1531,1519 L1519,1558 L1531,1596 L1544,1558 Z M1531,1519 L1572,1519 L1605,1494 L1565,1494 Z M1511,1456 L1498,1494 L1531,1470 L1544,1431 Z M1457,1494 L1498,1494 L1531,1519 L1490,1519 Z M1424,1519 L1411,1558 L1445,1533 L1457,1494 Z M1411,1558 L1445,1582 L1457,1621 L1424,1596 Z M1445,1582 L1486,1582 L1519,1558 L1478,1558 Z M1531,1645 L1519,1684 L1531,1723 L1544,1684 Z M1486,1659 L1519,1684 L1531,1723 L1498,1698 Z M1457,1698 L1498,1698 L1531,1723 L1490,1723 Z M1391,1621 L1378,1659 L1411,1635 L1424,1596 Z M1337,1659 L1325,1698 L1292,1723 L1304,1684 Z M1337,1659 L1378,1659 L1411,1684 L1371,1684 Z M1371,1684 L1358,1723 L1371,1761 L1383,1723 Z M1292,1723 L1325,1747 L1337,1786 L1304,1761 Z M1371,1761 L1411,1761 L1378,1786 L1337,1786 Z M1337,1786 L1325,1825 L1337,1863 L1350,1825 Z M1350,1825 L1391,1825 L1424,1849 L1383,1849 Z M1378,1786 L1411,1810 L1424,1849 L1391,1825 Z M1263,1761 L1251,1800 L1217,1825 L1230,1786 Z M1263,1761 L1304,1761 L1337,1786 L1296,1786 Z M1284,1825 L1325,1825 L1292,1849 L1251,1849 Z M1217,1825 L1251,1849 L1263,1888 L1230,1863 Z M1230,1863 L1217,1902 L1184,1926 L1197,1888 Z M1184,1849 L1172,1888 L1184,1926 L1197,1888 Z M1177,1825 L1217,1825 L1184,1849 L1143,1849 Z M1131,1761 L1164,1786 L1177,1825 L1143,1800 Z M1098,1863 L1057,1863 L1024,1888 L1064,1888 Z M1069,1825 L1057,1863 L1024,1888 L1036,1849 Z M1024,1888 L1057,1912 L1069,1951 L1036,1926 Z M1024,1888 L1011,1926 L1024,1965 L1036,1926 Z M1024,1888 L1011,1926 L978,1951 L990,1912 Z M1024,1888 L983,1888 L949,1912 L990,1912 Z M990,1863 L949,1863 L983,1888 L1024,1888 Z M1064,1888 L1024,1888 L1057,1912 L1098,1912 Z M904,1926 L937,1951 L949,1990 L916,1965 Z M904,1926 L863,1926 L830,1951 L870,1951 Z M863,1849 L850,1888 L863,1926 L875,1888 Z M817,1863 L850,1888 L863,1926 L830,1902 Z M784,1965 L743,1965 L710,1990 L751,1990 Z M743,1965 L755,1926 L722,1951 L710,1990 Z M697,1951 L710,1912 L722,1951 L710,1990 Z M817,1990 L830,1951 L842,1990 L830,2028 Z M1143,1926 L1131,1965 L1098,1990 L1110,1951 Z M1143,1926 L1184,1926 L1217,1951 L1177,1951 Z M1230,1990 L1217,2028 L1205,1990 L1217,1951 Z M1263,1965 L1304,1965 L1337,1990 L1296,1990 Z M1304,1965 L1337,1990 L1325,1951 L1292,1926 Z M1350,1951 L1337,1990 L1325,1951 L1337,1912 Z M1383,1926 L1371,1965 L1337,1990 L1350,1951 Z M1424,1926 L1457,1951 L1445,1912 L1411,1888 Z M1457,1825 L1445,1863 L1411,1888 L1424,1849 Z M1457,1825 L1498,1825 L1531,1849 L1490,1849 Z M1758,1684 L1725,1659 L1738,1698 L1771,1723 Z M1771,1645 L1812,1645 L1845,1621 L1804,1621 Z M1833,1582 L1799,1558 L1812,1596 L1845,1621 Z M1804,1621 L1845,1621 L1812,1596 L1771,1596 Z M1684,1582 L1672,1621 L1684,1659 L1697,1621 Z M1651,1684 L1639,1723 L1651,1761 L1664,1723 Z M1651,1684 L1692,1684 L1725,1659 L1684,1659 Z M1639,1596 L1672,1621 L1684,1659 L1651,1635 Z M1544,1684 L1531,1723 L1565,1698 L1577,1659 Z M1531,1723 L1565,1747 L1577,1786 L1544,1761 Z M1531,1723 L1519,1761 L1531,1800 L1544,1761 Z M1531,1723 L1572,1723 L1605,1698 L1565,1698 Z M1531,1723 L1572,1723 L1605,1747 L1565,1747 Z M1498,1747 L1486,1786 L1519,1761 L1531,1723 Z M1457,1747 L1498,1747 L1531,1723 L1490,1723 Z M1544,1558 L1585,1558 L1618,1582 L1577,1582 Z M1618,1582 L1605,1621 L1639,1596 L1651,1558 Z M1651,1558 L1692,1558 L1725,1582 L1684,1582 Z M1705,1519 L1692,1558 L1725,1533 L1738,1494 Z M1845,1543 L1833,1582 L1845,1621 L1858,1582 Z M1878,1519 L1919,1519 L1886,1494 L1845,1494 Z M664,1926 L697,1951 L710,1990 L676,1965 Z M623,1926 L636,1888 L602,1912 L590,1951 Z M830,1825 L817,1863 L784,1888 L796,1849 Z M870,1825 L830,1825 L863,1849 L904,1849 Z M978,1825 L1011,1849 L1024,1888 L990,1863 Z M1024,1810 L1011,1849 L1024,1888 L1036,1849 Z M1011,1723 L970,1723 L937,1747 L978,1747 Z M1024,1684 L1011,1723 L1024,1761 L1036,1723 Z M1077,1723 L1036,1723 L1069,1747 L1110,1747 Z M1143,1723 L1131,1761 L1098,1786 L1110,1747 Z M1143,1723 L1184,1723 L1217,1747 L1177,1747 Z M1217,1747 L1205,1786 L1217,1825 L1230,1786 Z M1217,1621 L1251,1645 L1263,1684 L1230,1659 Z M1217,1621 L1205,1659 L1217,1698 L1230,1659 Z M1251,1596 L1292,1596 L1325,1621 L1284,1621 Z M1177,1621 L1164,1659 L1131,1684 L1143,1645 Z M1164,1659 L1205,1659 L1172,1684 L1131,1684 Z M1284,1621 L1325,1621 L1292,1645 L1251,1645 Z M1098,1659 L1131,1684 L1143,1723 L1110,1698 Z M1098,1659 L1057,1659 L1024,1684 L1064,1684 Z M1337,1582 L1325,1621 L1337,1659 L1350,1621 Z M1337,1582 L1378,1582 L1411,1558 L1371,1558 Z M1457,1417 L1498,1417 L1531,1392 L1490,1392 Z M1498,1417 L1486,1456 L1498,1494 L1511,1456 Z M1531,1392 L1565,1417 L1577,1456 L1544,1431 Z M1531,1392 L1572,1392 L1605,1417 L1565,1417 Z M1544,1354 L1585,1354 L1618,1329 L1577,1329 Z M1585,1354 L1572,1392 L1605,1368 L1618,1329 Z M1531,1315 L1519,1354 L1531,1392 L1544,1354 Z M1531,1189 L1565,1213 L1577,1252 L1544,1227 Z M1531,1189 L1519,1227 L1531,1266 L1544,1227 Z M1531,1189 L1572,1189 L1605,1164 L1565,1164 Z M1531,1189 L1572,1189 L1605,1213 L1565,1213 Z M1498,1213 L1486,1252 L1519,1227 L1531,1189 Z M1544,1150 L1531,1189 L1565,1164 L1577,1125 Z M1457,1213 L1498,1213 L1531,1189 L1490,1189 Z M1457,1164 L1498,1164 L1531,1189 L1490,1189 Z M1411,1227 L1445,1252 L1457,1291 L1424,1266 Z M1337,1252 L1325,1291 L1337,1329 L1350,1291 Z M1337,1252 L1378,1252 L1411,1227 L1371,1227 Z M1424,1315 L1411,1354 L1445,1329 L1457,1291 Z M1337,1329 L1378,1329 L1411,1354 L1371,1354 Z M1337,1378 L1325,1417 L1337,1456 L1350,1417 Z M1292,1392 L1325,1417 L1337,1456 L1304,1431 Z M1445,1329 L1478,1354 L1490,1392 L1457,1368 Z M1445,1329 L1486,1329 L1519,1354 L1478,1354 Z M1486,1125 L1519,1150 L1531,1189 L1498,1164 Z M1672,1087 L1684,1048 L1697,1087 L1684,1125 Z M1833,1125 L1845,1087 L1858,1125 L1845,1164 Z M1858,1125 L1899,1125 L1932,1150 L1891,1150 Z M2006,999 L1965,999 L1998,1024 L2039,1024 Z M1845,834 L1858,795 L1845,756 L1833,795 Z M1684,465 L1697,426 L1684,388 L1672,426 Z M1069,222 L1036,198 L1023,159 L1057,184 Z M1023,237 L1036,198 L1023,159 L1011,198 Z M784,286 L796,247 L830,222 L817,261 Z M784,286 L743,286 L710,261 L751,261 Z M755,324 L722,300 L710,261 L743,286 Z M763,222 L722,222 L755,198 L796,198 Z M636,489 L602,465 L590,426 L623,451 Z M569,489 L528,489 L561,465 L602,465 Z M516,528 L528,489 L516,451 L503,489 Z M516,528 L475,528 L442,553 L482,553 Z M503,489 L462,489 L429,465 L470,465 Z M442,553 L408,528 L396,489 L429,514 Z M396,616 L355,616 L322,591 L363,591 Z M470,388 L482,349 L516,324 L503,363 Z M516,402 L528,363 L516,324 L503,363 Z M516,324 L482,300 L470,261 L503,286 Z M516,324 L528,286 L516,247 L503,286 Z M516,324 L528,286 L561,261 L549,300 Z M516,324 L475,324 L442,300 L482,300 Z M561,388 L528,363 L516,324 L549,349 Z M590,349 L549,349 L516,324 L557,324 Z M557,324 L516,324 L549,300 L590,300 Z M482,349 L442,349 L475,324 L516,324 Z M289,616 L248,616 L214,591 L255,591 Z M375,756 L363,795 L350,756 L363,718 Z M602,718 L569,693 L557,655 L590,679 Z M602,718 L561,718 L528,693 L569,693 Z M664,655 L676,616 L710,591 L697,630 Z M623,732 L636,693 L602,718 L590,756 Z M1511,591 L1544,616 L1531,577 L1498,553 Z M1217,834 L1230,795 L1217,756 L1205,795 Z M1172,820 L1184,781 L1217,756 L1205,795 Z M1143,781 L1184,781 L1217,756 L1177,756 Z M1077,655 L1036,655 L1069,630 L1110,630 Z M355,1354 L342,1392 L309,1417 L322,1378 Z M248,1354 L214,1329 L202,1291 L235,1315 Z M870,1164 L830,1164 L863,1189 L904,1189 Z M784,946 L743,946 L710,922 L751,922 Z M1292,985 L1304,946 L1337,922 L1325,960 Z M1292,1062 L1325,1087 L1337,1125 L1304,1101 Z M1197,1024 L1184,1062 L1172,1024 L1184,985 Z M1172,1227 L1205,1252 L1217,1291 L1184,1266 Z M482,1698 L442,1698 L475,1723 L516,1723 Z " fill="rgb(201, 75, 236)"/>
<path d="M1036,1062 L1024,1101 L1057,1125 L1069,1087 Z M990,1048 L949,1048 L937,1087 L978,1087 Z M990,999 L949,999 L937,960 L978,960 Z M1036,985 L1069,960 L1057,922 L1024,946 Z M1064,1024 L1098,1048 L1131,1024 L1098,999 Z M916,1024 L949,999 L937,960 L904,985 Z M916,1024 L949,1048 L983,1024 L949,999 Z M916,1024 L904,1062 L937,1087 L949,1048 Z M916,1024 L875,1024 L863,985 L904,985 Z M916,1024 L875,1024 L863,1062 L904,1062 Z M904,985 L870,960 L904,936 L937,960 Z M904,1062 L937,1087 L904,1111 L870,1087 Z M863,985 L850,1024 L817,999 L830,960 Z M863,1062 L830,1087 L817,1048 L850,1024 Z M850,1024 L817,999 L784,1024 L817,1048 Z M830,1087 L817,1125 L784,1101 L796,1062 Z M796,1062 L755,1062 L743,1024 L784,1024 Z M796,1062 L755,1062 L743,1101 L784,1101 Z M817,1125 L784,1101 L751,1125 L784,1150 Z M883,1125 L870,1164 L904,1189 L916,1150 Z M883,1125 L842,1125 L830,1087 L870,1087 Z M883,1125 L842,1125 L830,1164 L870,1164 Z M949,1125 L916,1150 L904,1111 L937,1087 Z M990,1125 L1024,1101 L1011,1062 L978,1087 Z M990,1125 L1024,1150 L1057,1125 L1024,1101 Z M990,1125 L978,1164 L1011,1189 L1024,1150 Z M990,1125 L949,1125 L937,1087 L978,1087 Z M990,1125 L949,1125 L937,1164 L978,1164 Z M1024,1150 L1057,1125 L1069,1164 L1036,1189 Z M1011,1189 L970,1189 L983,1227 L1024,1227 Z M937,1164 L970,1189 L937,1213 L904,1189 Z M904,1189 L863,1189 L875,1227 L916,1227 Z M970,1189 L937,1213 L949,1252 L983,1227 Z M916,1227 L904,1266 L937,1291 L949,1252 Z M916,1227 L875,1227 L863,1266 L904,1266 Z M937,1291 L904,1315 L916,1354 L949,1329 Z M990,1252 L978,1291 L1011,1315 L1024,1276 Z M990,1252 L949,1252 L937,1291 L978,1291 Z M1024,1227 L1057,1252 L1024,1276 L990,1252 Z M978,1291 L937,1291 L949,1329 L990,1329 Z M1024,1354 L983,1354 L970,1392 L1011,1392 Z M1036,1392 L1024,1431 L1057,1456 L1069,1417 Z M1011,1392 L978,1417 L990,1456 L1024,1431 Z M1064,1354 L1024,1354 L1036,1392 L1077,1392 Z M949,1329 L983,1354 L949,1378 L916,1354 Z M904,1392 L870,1417 L883,1456 L916,1431 Z M978,1417 L937,1417 L949,1456 L990,1456 Z M990,1456 L978,1494 L1011,1519 L1024,1480 Z M990,1456 L949,1456 L937,1494 L978,1494 Z M1024,1431 L1057,1456 L1024,1480 L990,1456 Z M978,1494 L937,1494 L949,1533 L990,1533 Z M937,1494 L904,1519 L916,1558 L949,1533 Z M949,1533 L983,1558 L949,1582 L916,1558 Z M904,1519 L863,1519 L875,1558 L916,1558 Z M916,1558 L904,1596 L937,1621 L949,1582 Z M916,1558 L875,1558 L863,1596 L904,1596 Z M830,1494 L863,1519 L830,1543 L796,1519 Z M850,1558 L817,1582 L830,1621 L863,1596 Z M784,1558 L743,1558 L755,1596 L796,1596 Z M796,1596 L830,1621 L796,1645 L763,1621 Z M796,1519 L784,1558 L817,1582 L830,1543 Z M796,1519 L755,1519 L743,1558 L784,1558 Z M743,1558 L710,1582 L722,1621 L755,1596 Z M710,1582 L669,1582 L656,1621 L697,1621 Z M710,1533 L743,1558 L710,1582 L676,1558 Z M722,1494 L710,1533 L743,1558 L755,1519 Z M676,1480 L636,1480 L623,1519 L664,1519 Z M697,1494 L664,1519 L676,1558 L710,1533 Z M636,1431 L669,1456 L636,1480 L602,1456 Z M623,1392 L590,1417 L602,1456 L636,1431 Z M623,1392 L590,1368 L557,1392 L590,1417 Z M602,1456 L590,1494 L623,1519 L636,1480 Z M602,1456 L561,1456 L549,1494 L590,1494 Z M590,1417 L549,1417 L561,1456 L602,1456 Z M590,1494 L557,1519 L569,1558 L602,1533 Z M549,1417 L536,1456 L503,1431 L516,1392 Z M549,1494 L516,1470 L482,1494 L516,1519 Z M516,1519 L475,1519 L462,1558 L503,1558 Z M503,1431 L470,1456 L482,1494 L516,1470 Z M470,1456 L429,1456 L442,1494 L482,1494 Z M429,1456 L396,1480 L408,1519 L442,1494 Z M429,1456 L396,1431 L363,1456 L396,1480 Z M475,1519 L462,1558 L429,1533 L442,1494 Z M396,1558 L363,1582 L375,1621 L408,1596 Z M462,1558 L429,1533 L396,1558 L429,1582 Z M503,1558 L470,1582 L482,1621 L516,1596 Z M516,1596 L549,1621 L516,1645 L482,1621 Z M470,1582 L429,1582 L442,1621 L482,1621 Z M482,1621 L470,1659 L503,1684 L516,1645 Z M482,1621 L442,1621 L429,1659 L470,1659 Z M470,1659 L429,1659 L442,1698 L482,1698 Z M442,1621 L429,1659 L396,1635 L408,1596 Z M429,1659 L396,1684 L408,1723 L442,1698 Z M429,1659 L396,1635 L363,1659 L396,1684 Z M442,1698 L475,1723 L442,1747 L408,1723 Z M396,1684 L355,1684 L342,1723 L383,1723 Z M350,1621 L309,1621 L322,1659 L363,1659 Z M355,1684 L342,1723 L309,1698 L322,1659 Z M309,1747 L276,1723 L309,1698 L342,1723 Z M383,1723 L342,1723 L355,1761 L396,1761 Z M363,1786 L396,1810 L429,1786 L396,1761 Z M408,1723 L396,1761 L429,1786 L442,1747 Z M482,1747 L442,1747 L429,1786 L470,1786 Z M470,1786 L429,1786 L442,1825 L482,1825 Z M503,1761 L470,1786 L482,1825 L516,1800 Z M516,1800 L549,1825 L516,1849 L482,1825 Z M528,1761 L516,1800 L549,1825 L561,1786 Z M602,1786 L590,1825 L623,1849 L636,1810 Z M602,1786 L561,1786 L549,1825 L590,1825 Z M590,1747 L549,1747 L561,1786 L602,1786 Z M636,1761 L669,1786 L636,1810 L602,1786 Z M590,1825 L557,1849 L569,1888 L602,1863 Z M602,1863 L636,1888 L602,1912 L569,1888 Z M557,1849 L516,1849 L528,1888 L569,1888 Z M664,1849 L623,1849 L636,1888 L676,1888 Z M697,1825 L664,1849 L676,1888 L710,1863 Z M710,1863 L743,1888 L710,1912 L676,1888 Z M710,1786 L669,1786 L656,1825 L697,1825 Z M722,1825 L710,1863 L743,1888 L755,1849 Z M751,1786 L710,1786 L722,1825 L763,1825 Z M784,1761 L751,1786 L763,1825 L796,1800 Z M796,1800 L830,1825 L796,1849 L763,1825 Z M796,1723 L784,1761 L817,1786 L830,1747 Z M796,1723 L755,1723 L743,1761 L784,1761 Z M784,1684 L743,1684 L755,1723 L796,1723 Z M830,1698 L863,1723 L830,1747 L796,1723 Z M722,1698 L755,1723 L722,1747 L689,1723 Z M710,1659 L676,1684 L689,1723 L722,1698 Z M689,1723 L676,1761 L710,1786 L722,1747 Z M676,1684 L636,1684 L623,1723 L664,1723 Z M664,1723 L623,1723 L636,1761 L676,1761 Z M602,1659 L590,1698 L623,1723 L636,1684 Z M602,1659 L561,1659 L549,1698 L590,1698 Z M623,1723 L590,1747 L602,1786 L636,1761 Z M590,1698 L623,1723 L590,1747 L557,1723 Z M549,1621 L516,1645 L528,1684 L561,1659 Z M590,1621 L549,1621 L561,1659 L602,1659 Z M623,1596 L590,1621 L602,1659 L636,1635 Z M602,1582 L561,1582 L549,1621 L590,1621 Z M636,1558 L623,1596 L656,1621 L669,1582 Z M557,1519 L516,1519 L528,1558 L569,1558 Z M602,1533 L636,1558 L602,1582 L569,1558 Z M528,1558 L516,1596 L549,1621 L561,1582 Z M664,1519 L623,1519 L636,1558 L676,1558 Z M697,1621 L656,1621 L669,1659 L710,1659 Z M636,1635 L669,1659 L636,1684 L602,1659 Z M722,1621 L710,1659 L743,1684 L755,1645 Z M796,1645 L755,1645 L743,1684 L784,1684 Z M870,1747 L830,1747 L842,1786 L883,1786 Z M883,1786 L842,1786 L830,1825 L870,1825 Z M904,1723 L870,1747 L883,1786 L916,1761 Z M916,1761 L904,1800 L937,1825 L949,1786 Z M937,1698 L970,1723 L937,1747 L904,1723 Z M916,1684 L875,1684 L863,1723 L904,1723 Z M949,1659 L937,1698 L970,1723 L983,1684 Z M842,1659 L830,1698 L863,1723 L875,1684 Z M870,1621 L830,1621 L842,1659 L883,1659 Z M904,1596 L937,1621 L904,1645 L870,1621 Z M937,1621 L904,1645 L916,1684 L949,1659 Z M978,1621 L937,1621 L949,1659 L990,1659 Z M1011,1596 L978,1621 L990,1659 L1024,1635 Z M990,1582 L949,1582 L937,1621 L978,1621 Z M1036,1596 L1024,1635 L1057,1659 L1069,1621 Z M1098,1533 L1131,1558 L1098,1582 L1064,1558 Z M1098,1582 L1057,1582 L1069,1621 L1110,1621 Z M1110,1621 L1098,1659 L1131,1684 L1143,1645 Z M1110,1621 L1069,1621 L1057,1659 L1098,1659 Z M1131,1558 L1098,1582 L1110,1621 L1143,1596 Z M1131,1558 L1172,1558 L1184,1596 L1143,1596 Z M1143,1596 L1177,1621 L1143,1645 L1110,1621 Z M1143,1519 L1184,1519 L1172,1558 L1131,1558 Z M1197,1558 L1184,1596 L1217,1621 L1230,1582 Z M1217,1494 L1251,1519 L1217,1543 L1184,1519 Z M1251,1519 L1217,1543 L1230,1582 L1263,1558 Z M1251,1519 L1292,1519 L1304,1558 L1263,1558 Z M1263,1558 L1304,1558 L1292,1596 L1251,1596 Z M1263,1480 L1304,1480 L1292,1519 L1251,1519 Z M1292,1519 L1325,1494 L1337,1533 L1304,1558 Z M1304,1558 L1337,1582 L1371,1558 L1337,1533 Z M1304,1558 L1292,1596 L1325,1621 L1337,1582 Z M1350,1494 L1337,1533 L1371,1558 L1383,1519 Z M1371,1480 L1411,1480 L1424,1519 L1383,1519 Z M1378,1456 L1411,1480 L1445,1456 L1411,1431 Z M1251,1392 L1292,1392 L1304,1431 L1263,1431 Z M1230,1456 L1263,1480 L1296,1456 L1263,1431 Z M1230,1456 L1217,1494 L1251,1519 L1263,1480 Z M1217,1417 L1251,1392 L1263,1431 L1230,1456 Z M1184,1392 L1217,1417 L1251,1392 L1217,1368 Z M1177,1417 L1217,1417 L1205,1456 L1164,1456 Z M1143,1392 L1131,1431 L1164,1456 L1177,1417 Z M1164,1456 L1131,1480 L1143,1519 L1177,1494 Z M1164,1456 L1205,1456 L1217,1494 L1177,1494 Z M1131,1431 L1164,1456 L1131,1480 L1098,1456 Z M1098,1456 L1057,1456 L1069,1494 L1110,1494 Z M1110,1494 L1098,1533 L1131,1558 L1143,1519 Z M1110,1494 L1069,1494 L1057,1533 L1098,1533 Z M1110,1417 L1069,1417 L1057,1456 L1098,1456 Z M1057,1456 L1024,1480 L1036,1519 L1069,1494 Z M1131,1354 L1098,1378 L1110,1417 L1143,1392 Z M1131,1354 L1172,1354 L1184,1392 L1143,1392 Z M1098,1329 L1131,1354 L1098,1378 L1064,1354 Z M1143,1315 L1184,1315 L1172,1354 L1131,1354 Z M1184,1315 L1217,1291 L1230,1329 L1197,1354 Z M1217,1291 L1251,1315 L1284,1291 L1251,1266 Z M1230,1329 L1217,1368 L1251,1392 L1263,1354 Z M1251,1315 L1292,1315 L1304,1354 L1263,1354 Z M1131,1227 L1172,1227 L1184,1266 L1143,1266 Z M1110,1291 L1143,1315 L1177,1291 L1143,1266 Z M1110,1291 L1098,1329 L1131,1354 L1143,1315 Z M1110,1291 L1069,1291 L1057,1329 L1098,1329 Z M1098,1252 L1131,1227 L1143,1266 L1110,1291 Z M1098,1252 L1057,1252 L1069,1291 L1110,1291 Z M1057,1252 L1024,1276 L1036,1315 L1069,1291 Z M1143,1189 L1184,1189 L1172,1227 L1131,1227 Z M1077,1189 L1110,1213 L1143,1189 L1110,1164 Z M1077,1189 L1064,1227 L1098,1252 L1110,1213 Z M1077,1189 L1036,1189 L1024,1227 L1064,1227 Z M1098,1125 L1057,1125 L1069,1164 L1110,1164 Z M1131,1150 L1164,1125 L1177,1164 L1143,1189 Z M1110,1087 L1143,1062 L1131,1024 L1098,1048 Z M1110,1087 L1143,1111 L1177,1087 L1143,1062 Z M1110,1087 L1098,1125 L1131,1150 L1143,1111 Z M1110,1087 L1069,1087 L1057,1048 L1098,1048 Z M1110,1087 L1069,1087 L1057,1125 L1098,1125 Z M1143,1062 L1184,1062 L1172,1024 L1131,1024 Z M1177,1087 L1217,1087 L1205,1125 L1164,1125 Z M1164,1125 L1205,1125 L1217,1164 L1177,1164 Z M1217,1087 L1251,1062 L1263,1101 L1230,1125 Z M1230,1125 L1263,1150 L1296,1125 L1263,1101 Z M1230,1125 L1217,1164 L1251,1189 L1263,1150 Z M1251,1062 L1292,1062 L1304,1101 L1263,1101 Z M1184,1189 L1217,1213 L1251,1189 L1217,1164 Z M1184,1189 L1172,1227 L1205,1252 L1217,1213 Z M1251,1189 L1292,1189 L1304,1227 L1263,1227 Z M1263,1227 L1304,1227 L1292,1266 L1251,1266 Z M1217,1213 L1251,1189 L1263,1227 L1230,1252 Z M1263,1150 L1304,1150 L1292,1189 L1251,1189 Z M1292,1189 L1325,1164 L1337,1203 L1304,1227 Z M1304,1227 L1337,1252 L1371,1227 L1337,1203 Z M1304,1227 L1292,1266 L1325,1291 L1337,1252 Z M1337,1125 L1325,1164 L1358,1189 L1371,1150 Z M1371,1150 L1411,1150 L1424,1189 L1383,1189 Z M1350,1087 L1391,1087 L1378,1125 L1337,1125 Z M1378,1125 L1411,1150 L1445,1125 L1411,1101 Z M1411,1150 L1445,1125 L1457,1164 L1424,1189 Z M1424,1062 L1411,1101 L1445,1125 L1457,1087 Z M1411,1024 L1445,1048 L1478,1024 L1445,999 Z M1457,1087 L1498,1087 L1486,1125 L1445,1125 Z M1371,1024 L1411,1024 L1424,1062 L1383,1062 Z M1371,1024 L1411,1024 L1424,985 L1383,985 Z M1337,1048 L1371,1024 L1383,1062 L1350,1087 Z M1337,999 L1350,960 L1383,985 L1371,1024 Z M1350,960 L1391,960 L1378,922 L1337,922 Z M1424,985 L1457,960 L1445,922 L1411,946 Z M1457,960 L1498,960 L1486,922 L1445,922 Z M1378,922 L1411,946 L1445,922 L1411,897 Z M1411,897 L1424,858 L1457,883 L1445,922 Z M1337,922 L1371,897 L1358,858 L1325,883 Z M1371,897 L1411,897 L1424,858 L1383,858 Z M1263,897 L1304,897 L1292,858 L1251,858 Z M1251,858 L1292,858 L1304,820 L1263,820 Z M1230,922 L1263,897 L1251,858 L1217,883 Z M1230,922 L1263,946 L1296,922 L1263,897 Z M1217,960 L1230,922 L1263,946 L1251,985 Z M1251,985 L1292,985 L1304,946 L1263,946 Z M1177,960 L1217,960 L1205,922 L1164,922 Z M1164,922 L1205,922 L1217,883 L1177,883 Z M1143,985 L1184,985 L1172,1024 L1131,1024 Z M1131,897 L1143,858 L1177,883 L1164,922 Z M1110,960 L1143,936 L1131,897 L1098,922 Z M1110,960 L1143,985 L1177,960 L1143,936 Z M1110,960 L1098,999 L1131,1024 L1143,985 Z M1110,960 L1069,960 L1057,922 L1098,922 Z M1110,960 L1069,960 L1057,999 L1098,999 Z M1098,922 L1057,922 L1069,883 L1110,883 Z M1024,897 L1036,858 L1069,883 L1057,922 Z M1143,858 L1184,858 L1172,820 L1131,820 Z M1077,858 L1110,834 L1098,795 L1064,820 Z M1077,858 L1110,883 L1143,858 L1110,834 Z M1077,858 L1036,858 L1024,820 L1064,820 Z M1098,795 L1110,756 L1143,781 L1131,820 Z M1098,795 L1057,795 L1069,756 L1110,756 Z M1131,820 L1172,820 L1184,781 L1143,781 Z M1110,756 L1143,732 L1131,693 L1098,718 Z M1110,756 L1143,781 L1177,756 L1143,732 Z M1110,756 L1069,756 L1057,718 L1098,718 Z M1057,795 L1069,756 L1036,732 L1024,771 Z M1024,820 L990,795 L1024,771 L1057,795 Z M1024,693 L983,693 L970,655 L1011,655 Z M1011,655 L1024,616 L990,591 L978,630 Z M1036,655 L1069,630 L1057,591 L1024,616 Z M1064,693 L1024,693 L1036,655 L1077,655 Z M949,718 L916,693 L949,669 L983,693 Z M916,693 L949,669 L937,630 L904,655 Z M916,693 L875,693 L863,655 L904,655 Z M904,655 L916,616 L883,591 L870,630 Z M904,732 L863,732 L875,693 L916,693 Z M830,756 L863,732 L850,693 L817,718 Z M817,718 L830,679 L796,655 L784,693 Z M796,781 L763,756 L796,732 L830,756 Z M796,732 L755,732 L743,693 L784,693 Z M904,781 L870,756 L904,732 L937,756 Z M916,820 L949,795 L937,756 L904,781 Z M916,820 L875,820 L863,781 L904,781 Z M937,756 L949,718 L916,693 L904,732 Z M978,756 L937,756 L949,718 L990,718 Z M990,795 L1024,771 L1011,732 L978,756 Z M990,795 L949,795 L937,756 L978,756 Z M904,858 L863,858 L875,820 L916,820 Z M970,858 L983,820 L949,795 L937,834 Z M937,883 L904,858 L937,834 L970,858 Z M1011,858 L970,858 L983,820 L1024,820 Z M990,922 L1024,897 L1011,858 L978,883 Z M990,922 L1024,946 L1057,922 L1024,897 Z M990,922 L978,960 L1011,985 L1024,946 Z M990,922 L949,922 L937,883 L978,883 Z M990,922 L949,922 L937,960 L978,960 Z M949,922 L937,960 L904,936 L916,897 Z M883,922 L916,897 L904,858 L870,883 Z M883,922 L842,922 L830,883 L870,883 Z M883,922 L842,922 L830,960 L870,960 Z M830,960 L796,985 L784,946 L817,922 Z M817,922 L784,897 L751,922 L784,946 Z M796,985 L755,985 L743,946 L784,946 Z M796,985 L755,985 L743,1024 L784,1024 Z M743,1024 L710,999 L676,1024 L710,1048 Z M755,1062 L722,1087 L710,1048 L743,1024 Z M710,1048 L697,1087 L664,1062 L676,1024 Z M710,999 L676,1024 L664,985 L697,960 Z M755,985 L743,1024 L710,999 L722,960 Z M710,922 L669,922 L656,960 L697,960 Z M676,897 L636,897 L623,858 L664,858 Z M722,883 L710,922 L676,897 L689,858 Z M669,922 L636,897 L602,922 L636,946 Z M636,946 L623,985 L590,960 L602,922 Z M636,897 L602,922 L590,883 L623,858 Z M636,1024 L602,999 L569,1024 L602,1048 Z M676,1024 L636,1024 L623,985 L664,985 Z M676,1024 L636,1024 L623,1062 L664,1062 Z M636,1101 L602,1125 L590,1087 L623,1062 Z M669,1125 L636,1101 L602,1125 L636,1150 Z M636,1150 L623,1189 L590,1164 L602,1125 Z M710,1125 L669,1125 L656,1087 L697,1087 Z M722,1164 L689,1189 L676,1150 L710,1125 Z M676,1150 L636,1150 L623,1189 L664,1189 Z M796,1189 L784,1227 L817,1252 L830,1213 Z M796,1189 L755,1189 L743,1150 L784,1150 Z M796,1189 L755,1189 L743,1227 L784,1227 Z M830,1164 L796,1189 L784,1150 L817,1125 Z M830,1164 L863,1189 L830,1213 L796,1189 Z M784,1227 L743,1227 L755,1266 L796,1266 Z M755,1189 L743,1227 L710,1203 L722,1164 Z M743,1227 L710,1252 L722,1291 L755,1266 Z M743,1227 L710,1203 L676,1227 L710,1252 Z M710,1252 L669,1252 L656,1291 L697,1291 Z M676,1227 L636,1227 L623,1189 L664,1189 Z M636,1227 L602,1252 L590,1213 L623,1189 Z M623,1189 L590,1164 L557,1189 L590,1213 Z M602,1252 L561,1252 L549,1213 L590,1213 Z M602,1252 L561,1252 L549,1291 L590,1291 Z M669,1252 L656,1291 L623,1266 L636,1227 Z M590,1291 L549,1291 L561,1329 L602,1329 Z M656,1291 L623,1315 L636,1354 L669,1329 Z M656,1291 L623,1266 L590,1291 L623,1315 Z M697,1291 L656,1291 L669,1329 L710,1329 Z M710,1329 L743,1354 L710,1378 L676,1354 Z M676,1354 L664,1392 L697,1417 L710,1378 Z M676,1354 L636,1354 L623,1392 L664,1392 Z M743,1354 L710,1378 L722,1417 L755,1392 Z M722,1291 L710,1329 L743,1354 L755,1315 Z M796,1266 L830,1291 L796,1315 L763,1291 Z M796,1315 L755,1315 L743,1354 L784,1354 Z M830,1291 L817,1329 L850,1354 L863,1315 Z M784,1354 L743,1354 L755,1392 L796,1392 Z M796,1392 L784,1431 L817,1456 L830,1417 Z M796,1392 L755,1392 L743,1431 L784,1431 Z M817,1329 L784,1354 L796,1392 L830,1368 Z M830,1368 L863,1392 L830,1417 L796,1392 Z M904,1315 L863,1315 L875,1354 L916,1354 Z M916,1354 L904,1392 L937,1417 L949,1378 Z M916,1354 L875,1354 L863,1392 L904,1392 Z M904,1266 L937,1291 L904,1315 L870,1291 Z M863,1189 L830,1213 L842,1252 L875,1227 Z M817,1456 L784,1480 L796,1519 L830,1494 Z M870,1417 L830,1417 L842,1456 L883,1456 Z M883,1456 L870,1494 L904,1519 L916,1480 Z M883,1456 L842,1456 L830,1494 L870,1494 Z M916,1431 L949,1456 L916,1480 L883,1456 Z M784,1480 L743,1480 L755,1519 L796,1519 Z M784,1431 L817,1456 L784,1480 L751,1456 Z M664,1392 L623,1392 L636,1431 L676,1431 Z M636,1354 L623,1392 L590,1368 L602,1329 Z M569,1354 L528,1354 L516,1392 L557,1392 Z M549,1291 L516,1315 L528,1354 L561,1329 Z M549,1291 L516,1266 L482,1291 L516,1315 Z M516,1315 L503,1354 L470,1329 L482,1291 Z M503,1354 L462,1354 L475,1392 L516,1392 Z M482,1417 L442,1417 L429,1456 L470,1456 Z M475,1392 L442,1368 L408,1392 L442,1417 Z M442,1417 L429,1456 L396,1431 L408,1392 Z M429,1329 L396,1354 L408,1392 L442,1368 Z M396,1354 L355,1354 L342,1392 L383,1392 Z M383,1392 L342,1392 L355,1431 L396,1431 Z M342,1392 L309,1417 L322,1456 L355,1431 Z M322,1456 L289,1431 L255,1456 L289,1480 Z M289,1480 L248,1480 L235,1519 L276,1519 Z M355,1480 L342,1519 L309,1494 L322,1456 Z M309,1494 L276,1519 L289,1558 L322,1533 Z M276,1519 L235,1519 L248,1558 L289,1558 Z M355,1558 L322,1533 L289,1558 L322,1582 Z M383,1519 L342,1519 L355,1558 L396,1558 Z M396,1480 L355,1480 L342,1519 L383,1519 Z M322,1582 L309,1621 L276,1596 L289,1558 Z M289,1558 L248,1558 L235,1596 L276,1596 Z M363,1582 L322,1582 L309,1621 L350,1621 Z M276,1645 L309,1621 L322,1659 L289,1684 Z M276,1645 L243,1621 L276,1596 L309,1621 Z M276,1645 L235,1645 L248,1684 L289,1684 Z M202,1543 L235,1519 L248,1558 L214,1582 Z M202,1543 L169,1519 L202,1494 L235,1519 Z M202,1543 L189,1582 L156,1558 L169,1519 Z M115,1480 L148,1456 L161,1494 L128,1519 Z M161,1417 L148,1456 L115,1431 L128,1392 Z M189,1456 L148,1456 L161,1494 L202,1494 Z M202,1417 L161,1417 L148,1456 L189,1456 Z M235,1392 L202,1417 L214,1456 L248,1431 Z M235,1392 L202,1368 L169,1392 L202,1417 Z M169,1392 L128,1392 L115,1354 L156,1354 Z M202,1368 L169,1392 L156,1354 L189,1329 Z M95,1417 L128,1392 L115,1354 L82,1378 Z M128,1315 L115,1354 L82,1329 L95,1291 Z M161,1291 L128,1266 L95,1291 L128,1315 Z M169,1315 L128,1315 L115,1354 L156,1354 Z M169,1266 L128,1266 L115,1227 L156,1227 Z M289,1354 L248,1354 L235,1315 L276,1315 Z M289,1354 L248,1354 L235,1392 L276,1392 Z M309,1291 L276,1266 L243,1291 L276,1315 Z M322,1329 L289,1354 L276,1315 L309,1291 Z M322,1252 L309,1291 L276,1266 L289,1227 Z M363,1329 L322,1329 L309,1291 L350,1291 Z M363,1252 L322,1252 L309,1291 L350,1291 Z M396,1227 L355,1227 L342,1189 L383,1189 Z M408,1266 L375,1291 L363,1252 L396,1227 Z M355,1227 L322,1203 L289,1227 L322,1252 Z M322,1203 L289,1227 L276,1189 L309,1164 Z M289,1227 L248,1227 L235,1189 L276,1189 Z M289,1227 L248,1227 L235,1266 L276,1266 Z M248,1227 L214,1252 L202,1213 L235,1189 Z M235,1189 L202,1164 L169,1189 L202,1213 Z M202,1213 L189,1252 L156,1227 L169,1189 Z M202,1164 L169,1189 L156,1150 L189,1125 Z M248,1150 L235,1189 L202,1164 L214,1125 Z M289,1150 L248,1150 L235,1189 L276,1189 Z M322,1125 L289,1101 L255,1125 L289,1150 Z M255,1125 L214,1125 L202,1087 L243,1087 Z M289,1101 L255,1125 L243,1087 L276,1062 Z M289,1024 L248,1024 L235,985 L276,985 Z M289,1024 L248,1024 L235,1062 L276,1062 Z M202,1087 L161,1087 L148,1125 L189,1125 Z M248,1024 L214,999 L181,1024 L214,1048 Z M214,1048 L202,1087 L169,1062 L181,1024 Z M214,999 L181,1024 L169,985 L202,960 Z M202,960 L161,960 L148,922 L189,922 Z M169,985 L128,985 L115,1024 L156,1024 Z M169,1062 L128,1062 L115,1024 L156,1024 Z M128,1062 L95,1087 L82,1048 L115,1024 Z M115,1024 L82,999 L49,1024 L82,1048 Z M161,1087 L128,1062 L95,1087 L128,1111 Z M128,1111 L115,1150 L82,1125 L95,1087 Z M169,1189 L128,1189 L115,1150 L156,1150 Z M169,1189 L128,1189 L115,1227 L156,1227 Z M128,1189 L95,1164 L61,1189 L95,1213 Z M95,1213 L82,1252 L49,1227 L61,1189 Z M95,1164 L61,1189 L49,1150 L82,1125 Z M128,1266 L95,1291 L82,1252 L115,1227 Z M54,1291 L95,1291 L82,1252 L41,1252 Z M20,1189 L61,1189 L49,1150 L8,1150 Z M54,1087 L41,1125 L8,1101 L20,1062 Z M54,1087 L95,1087 L82,1048 L41,1048 Z M54,1087 L95,1087 L82,1125 L41,1125 Z M128,936 L95,960 L82,922 L115,897 Z M128,985 L115,1024 L82,999 L95,960 Z M54,960 L20,985 L8,946 L41,922 Z M54,960 L95,960 L82,922 L41,922 Z M54,960 L95,960 L82,999 L41,999 Z M20,858 L61,858 L49,897 L8,897 Z M95,834 L61,858 L49,820 L82,795 Z M95,883 L82,922 L49,897 L61,858 Z M128,858 L95,834 L61,858 L95,883 Z M169,858 L128,858 L115,820 L156,820 Z M169,858 L128,858 L115,897 L156,897 Z M202,834 L169,858 L156,820 L189,795 Z M202,883 L189,922 L156,897 L169,858 Z M161,960 L128,936 L95,960 L128,985 Z M235,858 L202,834 L169,858 L202,883 Z M248,897 L214,922 L202,883 L235,858 Z M248,820 L235,858 L202,834 L214,795 Z M289,897 L248,897 L235,858 L276,858 Z M289,820 L248,820 L235,781 L276,781 Z M289,820 L248,820 L235,858 L276,858 Z M322,795 L289,820 L276,781 L309,756 Z M322,844 L309,883 L276,858 L289,820 Z M355,820 L322,795 L289,820 L322,844 Z M396,820 L355,820 L342,858 L383,858 Z M363,795 L322,795 L309,756 L350,756 Z M408,781 L396,820 L363,795 L375,756 Z M396,897 L355,897 L342,858 L383,858 Z M363,922 L322,922 L309,960 L350,960 Z M429,922 L396,897 L363,922 L396,946 Z M355,897 L322,922 L309,883 L342,858 Z M322,922 L289,897 L255,922 L289,946 Z M289,946 L276,985 L243,960 L255,922 Z M322,999 L289,1024 L276,985 L309,960 Z M363,999 L322,999 L309,960 L350,960 Z M408,985 L396,1024 L363,999 L375,960 Z M442,960 L408,985 L396,946 L429,922 Z M482,960 L442,960 L429,922 L470,922 Z M482,960 L442,960 L429,999 L470,999 Z M516,936 L482,960 L470,922 L503,897 Z M516,985 L503,1024 L470,999 L482,960 Z M516,1062 L482,1087 L470,1048 L503,1024 Z M462,1024 L429,999 L396,1024 L429,1048 Z M442,1087 L429,1125 L396,1101 L408,1062 Z M408,1062 L375,1087 L363,1048 L396,1024 Z M429,1125 L396,1101 L363,1125 L396,1150 Z M482,1087 L442,1087 L429,1048 L470,1048 Z M482,1087 L442,1087 L429,1125 L470,1125 Z M516,1111 L503,1150 L470,1125 L482,1087 Z M482,1164 L442,1164 L429,1125 L470,1125 Z M482,1213 L442,1213 L429,1252 L470,1252 Z M475,1189 L442,1164 L408,1189 L442,1213 Z M442,1213 L429,1252 L396,1227 L408,1189 Z M442,1164 L408,1189 L396,1150 L429,1125 Z M602,1125 L561,1125 L549,1087 L590,1087 Z M602,1125 L561,1125 L549,1164 L590,1164 Z M561,1125 L528,1150 L516,1111 L549,1087 Z M549,1087 L516,1062 L482,1087 L516,1111 Z M516,1266 L482,1291 L470,1252 L503,1227 Z M482,1291 L442,1291 L429,1252 L470,1252 Z M482,1291 L442,1291 L429,1329 L470,1329 Z M442,1291 L408,1266 L375,1291 L408,1315 Z M408,1315 L396,1354 L363,1329 L375,1291 Z M561,1252 L549,1291 L516,1266 L528,1227 Z M396,1150 L355,1150 L342,1189 L383,1189 Z M363,1125 L322,1125 L309,1087 L350,1087 Z M363,1048 L322,1048 L309,1087 L350,1087 Z M322,1048 L309,1087 L276,1062 L289,1024 Z M355,1024 L322,999 L289,1024 L322,1048 Z M355,1150 L342,1189 L309,1164 L322,1125 Z M569,1024 L528,1024 L516,985 L557,985 Z M569,1024 L528,1024 L516,1062 L557,1062 Z M602,999 L569,1024 L557,985 L590,960 Z M602,1048 L590,1087 L557,1062 L569,1024 Z M549,960 L516,936 L482,960 L516,985 Z M561,922 L549,960 L516,936 L528,897 Z M602,922 L561,922 L549,883 L590,883 Z M602,922 L561,922 L549,960 L590,960 Z M623,858 L590,834 L557,858 L590,883 Z M482,883 L442,883 L429,922 L470,922 Z M482,834 L442,834 L429,795 L470,795 Z M475,858 L442,834 L408,858 L442,883 Z M442,883 L429,922 L396,897 L408,858 Z M442,834 L408,858 L396,820 L429,795 Z M516,781 L503,820 L470,795 L482,756 Z M561,795 L528,820 L516,781 L549,756 Z M549,756 L516,732 L482,756 L516,781 Z M549,756 L561,718 L528,693 L516,732 Z M602,795 L561,795 L549,756 L590,756 Z M602,795 L561,795 L549,834 L590,834 Z M590,756 L549,756 L561,718 L602,718 Z M636,820 L623,858 L590,834 L602,795 Z M669,795 L636,820 L623,781 L656,756 Z M676,820 L636,820 L623,858 L664,858 Z M710,795 L669,795 L656,756 L697,756 Z M743,820 L710,795 L676,820 L710,844 Z M743,820 L755,781 L722,756 L710,795 Z M755,858 L722,883 L710,844 L743,820 Z M784,820 L743,820 L755,781 L796,781 Z M796,858 L830,834 L817,795 L784,820 Z M796,858 L755,858 L743,820 L784,820 Z M796,858 L755,858 L743,897 L784,897 Z M830,883 L796,858 L830,834 L863,858 Z M830,883 L817,922 L784,897 L796,858 Z M863,858 L875,820 L842,795 L830,834 Z M722,756 L755,732 L743,693 L710,718 Z M710,718 L676,693 L710,669 L743,693 Z M743,693 L755,655 L722,630 L710,669 Z M784,693 L743,693 L755,655 L796,655 Z M796,655 L830,630 L817,591 L784,616 Z M796,655 L755,655 L743,616 L784,616 Z M784,616 L751,591 L784,567 L817,591 Z M830,679 L796,655 L830,630 L863,655 Z M817,591 L830,553 L796,528 L784,567 Z M870,630 L830,630 L842,591 L883,591 Z M883,591 L916,567 L904,528 L870,553 Z M883,591 L842,591 L830,553 L870,553 Z M916,616 L883,591 L916,567 L949,591 Z M937,553 L949,514 L916,489 L904,528 Z M990,591 L1024,567 L1011,528 L978,553 Z M990,591 L949,591 L937,553 L978,553 Z M978,553 L937,553 L949,514 L990,514 Z M1024,616 L990,591 L1024,567 L1057,591 Z M978,630 L937,630 L949,591 L990,591 Z M1057,591 L1069,553 L1036,528 L1024,567 Z M1098,591 L1057,591 L1069,553 L1110,553 Z M1110,630 L1069,630 L1057,591 L1098,591 Z M1131,616 L1098,591 L1131,567 L1164,591 Z M1110,553 L1143,528 L1131,489 L1098,514 Z M1110,553 L1069,553 L1057,514 L1098,514 Z M1098,514 L1064,489 L1098,465 L1131,489 Z M1143,528 L1184,528 L1172,489 L1131,489 Z M1131,489 L1143,451 L1110,426 L1098,465 Z M1131,489 L1172,489 L1184,451 L1143,451 Z M1217,553 L1184,528 L1217,504 L1251,528 Z M1197,489 L1230,465 L1217,426 L1184,451 Z M1263,489 L1304,489 L1292,451 L1251,451 Z M1251,451 L1217,426 L1251,402 L1284,426 Z M1251,528 L1263,489 L1230,465 L1217,504 Z M1251,528 L1292,528 L1304,489 L1263,489 Z M1304,489 L1337,465 L1325,426 L1292,451 Z M1304,489 L1337,514 L1371,489 L1337,465 Z M1337,465 L1378,465 L1391,426 L1350,426 Z M1292,528 L1304,489 L1337,514 L1325,553 Z M1371,567 L1411,567 L1424,528 L1383,528 Z M1350,553 L1383,528 L1371,489 L1337,514 Z M1378,591 L1411,616 L1445,591 L1411,567 Z M1263,567 L1304,567 L1292,528 L1251,528 Z M1230,591 L1263,567 L1251,528 L1217,553 Z M1230,591 L1263,616 L1296,591 L1263,567 Z M1217,630 L1230,591 L1263,616 L1251,655 Z M1184,655 L1217,679 L1251,655 L1217,630 Z M1251,655 L1292,655 L1304,616 L1263,616 Z M1177,630 L1217,630 L1205,591 L1164,591 Z M1164,591 L1177,553 L1143,528 L1131,567 Z M1164,591 L1205,591 L1217,553 L1177,553 Z M1143,655 L1177,630 L1164,591 L1131,616 Z M1131,693 L1143,655 L1110,630 L1098,669 Z M1131,693 L1172,693 L1184,655 L1143,655 Z M1143,732 L1184,732 L1172,693 L1131,693 Z M1098,718 L1064,693 L1098,669 L1131,693 Z M1184,732 L1197,693 L1230,718 L1217,756 Z M1217,756 L1251,781 L1284,756 L1251,732 Z M1230,718 L1263,693 L1251,655 L1217,679 Z M1263,693 L1304,693 L1292,655 L1251,655 Z M1251,732 L1292,732 L1304,693 L1263,693 Z M1304,693 L1337,669 L1325,630 L1292,655 Z M1304,693 L1337,718 L1371,693 L1337,669 Z M1337,669 L1350,630 L1383,655 L1371,693 Z M1292,732 L1304,693 L1337,718 L1325,756 Z M1337,795 L1378,795 L1391,756 L1350,756 Z M1263,820 L1304,820 L1292,781 L1251,781 Z M1304,820 L1337,795 L1325,756 L1292,781 Z M1304,820 L1337,844 L1371,820 L1337,795 Z M1292,858 L1304,820 L1337,844 L1325,883 Z M1383,858 L1424,858 L1411,820 L1371,820 Z M1424,858 L1457,834 L1445,795 L1411,820 Z M1424,858 L1457,883 L1490,858 L1457,834 Z M1445,795 L1486,795 L1498,756 L1457,756 Z M1378,795 L1391,756 L1424,781 L1411,820 Z M1457,756 L1498,756 L1486,718 L1445,718 Z M1391,756 L1424,732 L1411,693 L1378,718 Z M1391,756 L1424,781 L1457,756 L1424,732 Z M1350,756 L1391,756 L1378,718 L1337,718 Z M1411,693 L1424,655 L1457,679 L1445,718 Z M1424,655 L1457,630 L1445,591 L1411,616 Z M1424,655 L1457,679 L1490,655 L1457,630 Z M1371,693 L1411,693 L1424,655 L1383,655 Z M1383,655 L1424,655 L1411,616 L1371,616 Z M1457,630 L1498,630 L1486,591 L1445,591 Z M1478,693 L1519,693 L1531,655 L1490,655 Z M1544,693 L1585,693 L1572,655 L1531,655 Z M1565,630 L1605,630 L1618,591 L1577,591 Z M1498,630 L1511,591 L1544,616 L1531,655 Z M1544,616 L1577,591 L1565,553 L1531,577 Z M1572,655 L1605,679 L1639,655 L1605,630 Z M1605,630 L1618,591 L1651,616 L1639,655 Z M1618,718 L1651,693 L1639,655 L1605,679 Z M1651,693 L1692,693 L1705,655 L1664,655 Z M1664,655 L1705,655 L1692,616 L1651,616 Z M1618,591 L1651,567 L1639,528 L1605,553 Z M1618,591 L1651,616 L1684,591 L1651,567 Z M1705,655 L1738,630 L1725,591 L1692,616 Z M1725,591 L1758,616 L1792,591 L1758,567 Z M1758,567 L1799,567 L1812,528 L1771,528 Z M1692,567 L1705,528 L1738,553 L1725,591 Z M1738,553 L1771,528 L1758,489 L1725,514 Z M1771,528 L1812,528 L1799,489 L1758,489 Z M1692,489 L1725,514 L1758,489 L1725,465 Z M1664,528 L1705,528 L1692,489 L1651,489 Z M1651,489 L1684,465 L1672,426 L1639,451 Z M1651,567 L1692,567 L1705,528 L1664,528 Z M1572,528 L1585,489 L1618,514 L1605,553 Z M1577,591 L1618,591 L1605,553 L1565,553 Z M1531,528 L1572,528 L1585,489 L1544,489 Z M1498,553 L1531,577 L1565,553 L1531,528 Z M1544,489 L1577,465 L1565,426 L1531,451 Z M1490,528 L1531,528 L1519,489 L1478,489 Z M1457,553 L1490,528 L1478,489 L1445,514 Z M1445,591 L1486,591 L1498,553 L1457,553 Z M1411,567 L1424,528 L1457,553 L1445,591 Z M1411,489 L1445,514 L1478,489 L1445,465 Z M1383,528 L1424,528 L1411,489 L1371,489 Z M1445,465 L1486,465 L1498,426 L1457,426 Z M1378,465 L1391,426 L1424,451 L1411,489 Z M1424,451 L1457,426 L1445,388 L1411,412 Z M1457,426 L1498,426 L1486,388 L1445,388 Z M1378,388 L1411,412 L1445,388 L1411,363 Z M1350,426 L1391,426 L1378,388 L1337,388 Z M1337,388 L1371,363 L1358,324 L1325,349 Z M1325,349 L1292,324 L1325,300 L1358,324 Z M1371,363 L1411,363 L1424,324 L1383,324 Z M1325,426 L1337,388 L1304,363 L1292,402 Z M1251,402 L1292,402 L1304,363 L1263,363 Z M1263,363 L1304,363 L1292,324 L1251,324 Z M1251,324 L1263,286 L1230,261 L1217,300 Z M1251,324 L1292,324 L1304,286 L1263,286 Z M1230,388 L1263,363 L1251,324 L1217,349 Z M1217,349 L1184,324 L1217,300 L1251,324 Z M1205,388 L1217,349 L1184,324 L1172,363 Z M1177,426 L1217,426 L1205,388 L1164,388 Z M1131,363 L1172,363 L1184,324 L1143,324 Z M1098,388 L1110,349 L1077,324 L1064,363 Z M1143,324 L1177,300 L1164,261 L1131,286 Z M1131,286 L1143,247 L1110,222 L1098,261 Z M1110,349 L1077,324 L1110,300 L1143,324 Z M1177,300 L1217,300 L1205,261 L1164,261 Z M1110,300 L1069,300 L1057,261 L1098,261 Z M1098,261 L1057,261 L1069,222 L1110,222 Z M1057,261 L1069,222 L1036,198 L1023,237 Z M1036,324 L1069,300 L1057,261 L1024,286 Z M1024,286 L990,261 L1023,237 L1057,261 Z M1024,363 L983,363 L970,324 L1011,324 Z M1011,324 L1024,286 L990,261 L978,300 Z M1064,363 L1024,363 L1036,324 L1077,324 Z M949,388 L983,363 L970,324 L937,349 Z M937,349 L904,324 L937,300 L970,324 Z M916,363 L875,363 L863,324 L904,324 Z M937,426 L949,388 L916,363 L904,402 Z M904,451 L870,426 L904,402 L937,426 Z M978,426 L937,426 L949,388 L990,388 Z M990,465 L949,465 L937,426 L978,426 Z M1011,451 L1024,412 L990,388 L978,426 Z M1024,412 L990,388 L1024,363 L1057,388 Z M1036,451 L1069,426 L1057,388 L1024,412 Z M1110,426 L1143,402 L1131,363 L1098,388 Z M1110,426 L1069,426 L1057,388 L1098,388 Z M1143,451 L1110,426 L1143,402 L1177,426 Z M1098,465 L1057,465 L1069,426 L1110,426 Z M949,514 L916,489 L949,465 L983,489 Z M916,489 L949,465 L937,426 L904,451 Z M916,489 L875,489 L863,451 L904,451 Z M904,528 L863,528 L875,489 L916,489 Z M850,489 L863,451 L830,426 L817,465 Z M830,553 L796,528 L830,504 L863,528 Z M796,528 L830,504 L817,465 L784,489 Z M796,528 L755,528 L743,489 L784,489 Z M784,489 L743,489 L755,451 L796,451 Z M784,567 L743,567 L755,528 L796,528 Z M743,489 L755,451 L722,426 L710,465 Z M722,553 L755,528 L743,489 L710,514 Z M697,553 L710,514 L676,489 L664,528 Z M676,567 L636,567 L623,528 L664,528 Z M636,616 L602,591 L636,567 L669,591 Z M602,591 L636,567 L623,528 L590,553 Z M602,591 L561,591 L549,553 L590,553 Z M590,553 L602,514 L569,489 L557,528 Z M590,630 L549,630 L561,591 L602,591 Z M549,553 L516,528 L482,553 L516,577 Z M549,630 L516,655 L503,616 L536,591 Z M503,616 L516,577 L482,553 L470,591 Z M482,630 L442,630 L429,591 L470,591 Z M503,693 L462,693 L475,655 L516,655 Z M475,655 L442,630 L408,655 L442,679 Z M442,630 L408,655 L396,616 L429,591 Z M429,718 L442,679 L408,655 L396,693 Z M442,756 L408,732 L375,756 L408,781 Z M396,693 L355,693 L342,655 L383,655 Z M482,756 L442,756 L429,718 L470,718 Z M482,756 L442,756 L429,795 L470,795 Z M516,732 L482,756 L470,718 L503,693 Z M408,732 L375,756 L363,718 L396,693 Z M383,655 L342,655 L355,616 L396,616 Z M363,718 L322,718 L309,756 L350,756 Z M355,693 L322,669 L289,693 L322,718 Z M342,655 L355,616 L322,591 L309,630 Z M322,718 L309,756 L276,732 L289,693 Z M322,669 L289,693 L276,655 L309,630 Z M289,693 L248,693 L235,655 L276,655 Z M289,693 L248,693 L235,732 L276,732 Z M276,655 L235,655 L248,616 L289,616 Z M248,693 L214,718 L202,679 L235,655 Z M235,655 L202,630 L169,655 L202,679 Z M235,655 L248,616 L214,591 L202,630 Z M169,781 L128,781 L115,820 L156,820 Z M169,732 L128,732 L115,693 L156,693 Z M161,756 L128,732 L95,756 L128,781 Z M128,781 L115,820 L82,795 L95,756 Z M128,732 L95,756 L82,718 L115,693 Z M54,756 L95,756 L82,795 L41,795 Z M169,655 L128,655 L115,693 L156,693 Z M202,630 L161,630 L148,591 L189,591 Z M202,679 L189,718 L156,693 L169,655 Z M189,591 L148,591 L161,553 L202,553 Z M161,630 L128,655 L115,616 L148,591 Z M115,567 L128,528 L161,553 L148,591 Z M202,504 L169,528 L156,489 L189,465 Z M202,504 L235,528 L202,553 L169,528 Z M202,504 L214,465 L248,489 L235,528 Z M289,489 L248,489 L235,451 L276,451 Z M322,465 L289,489 L276,451 L309,426 Z M276,528 L235,528 L248,489 L289,489 Z M289,567 L248,567 L235,528 L276,528 Z M309,553 L322,514 L289,489 L276,528 Z M322,591 L289,567 L255,591 L289,616 Z M355,567 L322,591 L309,553 L342,528 Z M355,489 L322,465 L289,489 L322,514 Z M383,528 L342,528 L355,489 L396,489 Z M396,567 L355,567 L342,528 L383,528 Z M396,489 L408,451 L375,426 L363,465 Z M363,465 L322,465 L309,426 L350,426 Z M442,426 L408,451 L396,412 L429,388 Z M396,363 L355,363 L342,324 L383,324 Z M350,426 L309,426 L322,388 L363,388 Z M355,363 L322,388 L309,349 L342,324 Z M276,402 L309,426 L276,451 L243,426 Z M276,402 L289,363 L322,388 L309,426 Z M276,402 L235,402 L248,363 L289,363 Z M309,300 L342,324 L309,349 L276,324 Z M383,324 L342,324 L355,286 L396,286 Z M408,324 L442,300 L429,261 L396,286 Z M363,261 L396,286 L429,261 L396,237 Z M470,261 L429,261 L442,222 L482,222 Z M482,300 L442,300 L429,261 L470,261 Z M503,286 L516,247 L482,222 L470,261 Z M470,184 L503,159 L516,198 L482,222 Z M516,247 L482,222 L516,198 L549,222 Z M528,286 L561,261 L549,222 L516,247 Z M590,222 L602,184 L569,159 L557,198 Z M602,261 L636,237 L623,198 L590,222 Z M602,261 L561,261 L549,222 L590,222 Z M557,198 L516,198 L528,159 L569,159 Z M602,184 L569,159 L602,135 L636,159 Z M557,121 L590,96 L602,135 L569,159 Z M664,121 L697,96 L710,135 L676,159 Z M664,121 L623,121 L636,159 L676,159 Z M664,121 L623,121 L636,82 L676,82 Z M784,82 L817,57 L830,96 L796,121 Z M784,82 L751,57 L784,33 L817,57 Z M784,82 L743,82 L755,121 L796,121 Z M870,19 L830,19 L842,57 L883,57 Z M916,82 L883,57 L916,33 L949,57 Z M870,96 L830,96 L842,57 L883,57 Z M904,121 L916,82 L883,57 L870,96 Z M916,159 L949,135 L937,96 L904,121 Z M916,159 L875,159 L863,121 L904,121 Z M830,145 L796,121 L830,96 L863,121 Z M817,184 L830,145 L796,121 L784,159 Z M830,222 L863,198 L850,159 L817,184 Z M784,159 L743,159 L755,121 L796,121 Z M796,198 L755,198 L743,159 L784,159 Z M743,159 L755,121 L722,96 L710,135 Z M710,184 L676,159 L710,135 L743,159 Z M722,222 L755,198 L743,159 L710,184 Z M697,222 L710,184 L676,159 L664,198 Z M710,261 L669,261 L656,222 L697,222 Z M664,198 L623,198 L636,159 L676,159 Z M636,286 L602,261 L636,237 L669,261 Z M623,324 L636,286 L602,261 L590,300 Z M689,324 L722,300 L710,261 L676,286 Z M664,324 L623,324 L636,286 L676,286 Z M676,363 L636,363 L623,324 L664,324 Z M710,388 L722,349 L689,324 L676,363 Z M602,388 L636,363 L623,324 L590,349 Z M602,388 L561,388 L549,349 L590,349 Z M636,412 L602,388 L636,363 L669,388 Z M623,451 L636,412 L602,388 L590,426 Z M697,426 L656,426 L669,388 L710,388 Z M710,465 L669,465 L656,426 L697,426 Z M722,426 L755,402 L743,363 L710,388 Z M796,402 L755,402 L743,363 L784,363 Z M796,451 L763,426 L796,402 L830,426 Z M817,388 L830,349 L796,324 L784,363 Z M842,388 L875,363 L863,324 L830,349 Z M870,426 L830,426 L842,388 L883,388 Z M830,349 L796,324 L830,300 L863,324 Z M904,324 L916,286 L883,261 L870,300 Z M870,300 L830,300 L842,261 L883,261 Z M916,286 L949,261 L937,222 L904,247 Z M904,247 L870,222 L904,198 L937,222 Z M883,261 L842,261 L830,222 L870,222 Z M904,198 L863,198 L875,159 L916,159 Z M937,222 L949,184 L916,159 L904,198 Z M949,184 L916,159 L949,135 L983,159 Z M978,222 L937,222 L949,184 L990,184 Z M990,261 L1023,237 L1011,198 L978,222 Z M990,261 L949,261 L937,222 L978,222 Z M1011,121 L1023,82 L990,57 L978,96 Z M990,135 L949,135 L937,96 L978,96 Z M1036,121 L1069,96 L1057,57 L1023,82 Z M1098,135 L1057,135 L1069,96 L1110,96 Z M1098,184 L1064,159 L1098,135 L1131,159 Z M1110,222 L1143,198 L1131,159 L1098,184 Z M1110,222 L1069,222 L1057,184 L1098,184 Z M1131,159 L1143,121 L1110,96 L1098,135 Z M1131,159 L1172,159 L1184,121 L1143,121 Z M1143,198 L1184,198 L1172,159 L1131,159 Z M1143,121 L1177,96 L1164,57 L1131,82 Z M1217,145 L1184,121 L1217,96 L1251,121 Z M1230,184 L1263,159 L1251,121 L1217,145 Z M1263,159 L1304,159 L1292,121 L1251,121 Z M1263,82 L1230,57 L1263,33 L1296,57 Z M1263,82 L1251,121 L1217,96 L1230,57 Z M1263,82 L1304,82 L1292,121 L1251,121 Z M1304,159 L1337,135 L1325,96 L1292,121 Z M1177,19 L1217,19 L1205,57 L1164,57 Z M1177,96 L1217,96 L1205,57 L1164,57 Z M1131,82 L1098,57 L1131,33 L1164,57 Z M1110,96 L1069,96 L1057,57 L1098,57 Z M1110,19 L1069,19 L1057,57 L1098,57 Z M1023,82 L990,57 L1023,33 L1057,57 Z M978,19 L937,19 L949,57 L990,57 Z M978,96 L937,96 L949,57 L990,57 Z M1383,121 L1371,159 L1337,135 L1350,96 Z M1383,121 L1424,121 L1411,82 L1371,82 Z M1383,121 L1424,121 L1411,159 L1371,159 Z M1445,184 L1411,159 L1445,135 L1478,159 Z M1383,198 L1424,198 L1411,159 L1371,159 Z M1337,184 L1304,159 L1337,135 L1371,159 Z M1350,222 L1383,198 L1371,159 L1337,184 Z M1325,222 L1337,184 L1304,159 L1292,198 Z M1337,261 L1378,261 L1391,222 L1350,222 Z M1296,261 L1337,261 L1325,222 L1284,222 Z M1251,247 L1217,222 L1251,198 L1284,222 Z M1251,198 L1292,198 L1304,159 L1263,159 Z M1217,222 L1230,184 L1197,159 L1184,198 Z M1143,247 L1110,222 L1143,198 L1177,222 Z M1164,261 L1205,261 L1217,222 L1177,222 Z M1263,286 L1296,261 L1284,222 L1251,247 Z M1358,324 L1371,286 L1337,261 L1325,300 Z M1383,324 L1424,324 L1411,286 L1371,286 Z M1411,286 L1378,261 L1411,237 L1445,261 Z M1424,324 L1457,300 L1445,261 L1411,286 Z M1424,324 L1457,349 L1490,324 L1457,300 Z M1445,261 L1457,222 L1424,198 L1411,237 Z M1445,261 L1486,261 L1498,222 L1457,222 Z M1457,300 L1498,300 L1486,261 L1445,261 Z M1457,222 L1490,198 L1478,159 L1445,184 Z M1486,261 L1498,222 L1531,247 L1519,286 Z M1498,222 L1531,247 L1565,222 L1531,198 Z M1544,286 L1577,261 L1565,222 L1531,247 Z M1577,261 L1618,261 L1605,222 L1565,222 Z M1651,237 L1684,261 L1651,286 L1618,261 Z M1605,300 L1618,261 L1651,286 L1639,324 Z M1572,324 L1605,349 L1639,324 L1605,300 Z M1565,300 L1605,300 L1618,261 L1577,261 Z M1445,388 L1486,388 L1498,349 L1457,349 Z M1411,363 L1424,324 L1457,349 L1445,388 Z M1498,426 L1531,402 L1519,363 L1486,388 Z M1498,426 L1531,451 L1565,426 L1531,402 Z M1531,402 L1544,363 L1577,388 L1565,426 Z M1486,465 L1498,426 L1531,451 L1519,489 Z M1565,426 L1605,426 L1618,388 L1577,388 Z M1577,465 L1618,465 L1605,426 L1565,426 Z M1577,388 L1618,388 L1605,349 L1565,349 Z M1605,426 L1618,388 L1651,412 L1639,451 Z M1618,388 L1651,363 L1639,324 L1605,349 Z M1618,388 L1651,412 L1684,388 L1651,363 Z M1651,363 L1692,363 L1705,324 L1664,324 Z M1697,426 L1738,426 L1725,388 L1684,388 Z M1692,363 L1705,324 L1738,349 L1725,388 Z M1738,300 L1771,324 L1738,349 L1705,324 Z M1664,324 L1705,324 L1692,286 L1651,286 Z M1771,402 L1738,426 L1725,388 L1758,363 Z M1771,402 L1804,426 L1771,451 L1738,426 Z M1771,402 L1812,402 L1799,363 L1758,363 Z M1758,489 L1799,489 L1812,451 L1771,451 Z M1725,465 L1738,426 L1771,451 L1758,489 Z M1845,504 L1812,528 L1799,489 L1833,465 Z M1845,504 L1878,528 L1845,553 L1812,528 Z M1845,504 L1858,465 L1891,489 L1878,528 Z M1799,567 L1812,528 L1845,553 L1833,591 Z M1845,630 L1886,630 L1899,591 L1858,591 Z M1812,655 L1845,630 L1833,591 L1799,616 Z M1812,655 L1845,679 L1878,655 L1845,630 Z M1799,693 L1812,655 L1845,679 L1833,718 Z M1771,655 L1812,655 L1799,616 L1758,616 Z M1758,693 L1799,693 L1812,655 L1771,655 Z M1771,732 L1812,732 L1799,693 L1758,693 Z M1725,669 L1738,630 L1771,655 L1758,693 Z M1692,693 L1725,718 L1758,693 L1725,669 Z M1738,756 L1771,732 L1758,693 L1725,718 Z M1738,756 L1771,781 L1804,756 L1771,732 Z M1697,756 L1738,756 L1725,718 L1684,718 Z M1684,795 L1725,795 L1738,756 L1697,756 Z M1639,732 L1651,693 L1684,718 L1672,756 Z M1605,756 L1639,781 L1672,756 L1639,732 Z M1565,756 L1605,756 L1618,718 L1577,718 Z M1577,795 L1618,795 L1605,756 L1565,756 Z M1531,732 L1544,693 L1577,718 L1565,756 Z M1498,756 L1531,732 L1519,693 L1486,718 Z M1498,756 L1531,781 L1565,756 L1531,732 Z M1486,795 L1498,756 L1531,781 L1519,820 Z M1565,834 L1605,834 L1618,795 L1577,795 Z M1544,820 L1577,795 L1565,756 L1531,781 Z M1572,858 L1605,883 L1639,858 L1605,834 Z M1457,834 L1498,834 L1486,795 L1445,795 Z M1445,922 L1486,922 L1498,883 L1457,883 Z M1498,960 L1531,936 L1519,897 L1486,922 Z M1498,960 L1531,985 L1565,960 L1531,936 Z M1531,936 L1544,897 L1577,922 L1565,960 Z M1531,985 L1565,960 L1577,999 L1544,1024 Z M1565,960 L1605,960 L1618,999 L1577,999 Z M1565,960 L1605,960 L1618,922 L1577,922 Z M1478,1024 L1519,1024 L1531,1062 L1490,1062 Z M1478,1024 L1519,1024 L1531,985 L1490,985 Z M1445,1048 L1478,1024 L1490,1062 L1457,1087 Z M1445,999 L1457,960 L1490,985 L1478,1024 Z M1531,1062 L1544,1024 L1577,1048 L1565,1087 Z M1498,1087 L1531,1111 L1565,1087 L1531,1062 Z M1498,1087 L1486,1125 L1519,1150 L1531,1111 Z M1565,1087 L1605,1087 L1618,1125 L1577,1125 Z M1565,1087 L1605,1087 L1618,1048 L1577,1048 Z M1577,1125 L1618,1125 L1605,1164 L1565,1164 Z M1531,1111 L1565,1087 L1577,1125 L1544,1150 Z M1605,1087 L1639,1062 L1651,1101 L1618,1125 Z M1618,1125 L1651,1150 L1684,1125 L1651,1101 Z M1618,1125 L1605,1164 L1639,1189 L1651,1150 Z M1639,1062 L1651,1024 L1684,1048 L1672,1087 Z M1585,1024 L1618,1048 L1651,1024 L1618,999 Z M1605,960 L1618,922 L1651,946 L1639,985 Z M1639,985 L1672,960 L1684,999 L1651,1024 Z M1618,922 L1651,897 L1639,858 L1605,883 Z M1618,922 L1651,946 L1684,922 L1651,897 Z M1651,897 L1692,897 L1705,858 L1664,858 Z M1577,922 L1618,922 L1605,883 L1565,883 Z M1684,922 L1725,922 L1738,960 L1697,960 Z M1725,922 L1758,946 L1792,922 L1758,897 Z M1758,897 L1799,897 L1812,858 L1771,858 Z M1692,897 L1705,858 L1738,883 L1725,922 Z M1758,946 L1792,922 L1804,960 L1771,985 Z M1738,883 L1771,858 L1758,820 L1725,844 Z M1771,858 L1812,858 L1799,820 L1758,820 Z M1692,820 L1725,844 L1758,820 L1725,795 Z M1664,858 L1705,858 L1692,820 L1651,820 Z M1651,820 L1684,795 L1672,756 L1639,781 Z M1605,834 L1618,795 L1651,820 L1639,858 Z M1725,795 L1738,756 L1771,781 L1758,820 Z M1758,820 L1799,820 L1812,781 L1771,781 Z M1812,858 L1845,834 L1833,795 L1799,820 Z M1812,858 L1845,883 L1878,858 L1845,834 Z M1878,732 L1919,732 L1932,693 L1891,693 Z M1858,718 L1891,693 L1878,655 L1845,679 Z M1886,756 L1919,781 L1952,756 L1919,732 Z M1919,732 L1932,693 L1965,718 L1952,756 Z M1932,820 L1965,795 L1952,756 L1919,781 Z M2006,795 L1965,795 L1952,756 L1993,756 Z M1965,669 L1932,693 L1919,655 L1952,630 Z M1891,693 L1932,693 L1919,655 L1878,655 Z M1886,630 L1899,591 L1932,616 L1919,655 Z M1932,567 L1899,591 L1886,553 L1919,528 Z M1858,591 L1899,591 L1886,553 L1845,553 Z M1952,834 L1965,795 L1998,820 L1986,858 Z M1919,858 L1952,883 L1986,858 L1952,834 Z M1952,883 L1986,858 L1998,897 L1965,922 Z M2027,858 L1986,858 L1998,897 L2039,897 Z M1993,960 L2006,922 L2039,946 L2027,985 Z M1993,960 L1952,960 L1965,999 L2006,999 Z M1993,960 L1952,960 L1965,922 L2006,922 Z M1919,985 L1952,960 L1965,999 L1932,1024 Z M1919,936 L1932,897 L1965,922 L1952,960 Z M1886,960 L1919,985 L1952,960 L1919,936 Z M1845,960 L1886,960 L1899,922 L1858,922 Z M1878,985 L1919,985 L1932,1024 L1891,1024 Z M1833,999 L1845,960 L1878,985 L1866,1024 Z M1792,922 L1833,922 L1845,960 L1804,960 Z M1758,1024 L1799,1024 L1812,1062 L1771,1062 Z M1758,1024 L1799,1024 L1812,985 L1771,985 Z M1725,1048 L1758,1024 L1771,1062 L1738,1087 Z M1725,999 L1738,960 L1771,985 L1758,1024 Z M1799,1024 L1833,1048 L1866,1024 L1833,999 Z M1833,1048 L1866,1024 L1878,1062 L1845,1087 Z M1845,1087 L1886,1087 L1899,1125 L1858,1125 Z M1878,1062 L1919,1062 L1932,1024 L1891,1024 Z M1919,1062 L1932,1024 L1965,1048 L1952,1087 Z M1886,1087 L1919,1111 L1952,1087 L1919,1062 Z M1932,1024 L1965,1048 L1998,1024 L1965,999 Z M1993,1087 L2027,1062 L2039,1101 L2006,1125 Z M1993,1087 L1952,1087 L1965,1125 L2006,1125 Z M1993,1087 L1952,1087 L1965,1048 L2006,1048 Z M1952,1164 L1965,1125 L1998,1150 L1986,1189 Z M1919,1189 L1952,1213 L1986,1189 L1952,1164 Z M1952,1213 L1986,1189 L1998,1227 L1965,1252 Z M2027,1189 L1986,1189 L1998,1150 L2039,1150 Z M1932,1227 L1919,1266 L1952,1291 L1965,1252 Z M2006,1252 L1965,1252 L1952,1291 L1993,1291 Z M1919,1315 L1952,1291 L1965,1329 L1932,1354 Z M1886,1291 L1919,1315 L1952,1291 L1919,1266 Z M1891,1227 L1932,1227 L1919,1266 L1878,1266 Z M1878,1189 L1919,1189 L1932,1227 L1891,1227 Z M1878,1189 L1919,1189 L1932,1150 L1891,1150 Z M1845,1213 L1878,1189 L1891,1227 L1858,1252 Z M1812,1189 L1845,1213 L1878,1189 L1845,1164 Z M1812,1189 L1799,1227 L1833,1252 L1845,1213 Z M1758,1227 L1799,1227 L1812,1266 L1771,1266 Z M1725,1252 L1758,1227 L1771,1266 L1738,1291 Z M1771,1189 L1812,1189 L1799,1227 L1758,1227 Z M1758,1150 L1799,1150 L1812,1189 L1771,1189 Z M1738,1164 L1725,1203 L1758,1227 L1771,1189 Z M1725,1125 L1758,1150 L1792,1125 L1758,1101 Z M1692,1150 L1725,1125 L1738,1164 L1705,1189 Z M1692,1227 L1725,1252 L1758,1227 L1725,1203 Z M1664,1189 L1705,1189 L1692,1227 L1651,1227 Z M1651,1150 L1692,1150 L1705,1189 L1664,1189 Z M1651,1227 L1639,1266 L1672,1291 L1684,1252 Z M1684,1252 L1725,1252 L1738,1291 L1697,1291 Z M1605,1291 L1639,1315 L1672,1291 L1639,1266 Z M1639,1315 L1672,1291 L1684,1329 L1651,1354 Z M1651,1354 L1692,1354 L1705,1392 L1664,1392 Z M1664,1392 L1705,1392 L1692,1431 L1651,1431 Z M1618,1329 L1605,1368 L1639,1392 L1651,1354 Z M1692,1354 L1725,1378 L1758,1354 L1725,1329 Z M1705,1392 L1692,1431 L1725,1456 L1738,1417 Z M1725,1378 L1758,1354 L1771,1392 L1738,1417 Z M1758,1354 L1799,1354 L1812,1392 L1771,1392 Z M1771,1392 L1812,1392 L1799,1431 L1758,1431 Z M1771,1315 L1812,1315 L1799,1354 L1758,1354 Z M1799,1354 L1833,1329 L1845,1368 L1812,1392 Z M1812,1392 L1845,1417 L1878,1392 L1845,1368 Z M1812,1392 L1799,1431 L1833,1456 L1845,1417 Z M1858,1329 L1845,1368 L1878,1392 L1891,1354 Z M1891,1354 L1932,1354 L1919,1392 L1878,1392 Z M1878,1315 L1919,1315 L1932,1354 L1891,1354 Z M1965,1378 L1952,1417 L1919,1392 L1932,1354 Z M1886,1417 L1919,1392 L1932,1431 L1899,1456 Z M1845,1417 L1886,1417 L1899,1456 L1858,1456 Z M1858,1456 L1899,1456 L1886,1494 L1845,1494 Z M1799,1480 L1833,1456 L1845,1494 L1812,1519 Z M1758,1480 L1799,1480 L1812,1519 L1771,1519 Z M1725,1456 L1758,1480 L1792,1456 L1758,1431 Z M1738,1494 L1725,1533 L1758,1558 L1771,1519 Z M1692,1480 L1725,1456 L1738,1494 L1705,1519 Z M1651,1480 L1692,1480 L1705,1519 L1664,1519 Z M1618,1456 L1651,1480 L1684,1456 L1651,1431 Z M1618,1456 L1605,1494 L1639,1519 L1651,1480 Z M1605,1417 L1639,1392 L1651,1431 L1618,1456 Z M1577,1456 L1618,1456 L1605,1494 L1565,1494 Z M1565,1417 L1605,1417 L1618,1456 L1577,1456 Z M1544,1431 L1531,1470 L1565,1494 L1577,1456 Z M1531,1519 L1572,1519 L1585,1558 L1544,1558 Z M1498,1494 L1531,1519 L1565,1494 L1531,1470 Z M1457,1494 L1445,1533 L1478,1558 L1490,1519 Z M1445,1456 L1486,1456 L1498,1494 L1457,1494 Z M1490,1519 L1531,1519 L1519,1558 L1478,1558 Z M1411,1558 L1445,1582 L1478,1558 L1445,1533 Z M1445,1582 L1486,1582 L1498,1621 L1457,1621 Z M1486,1582 L1519,1558 L1531,1596 L1498,1621 Z M1498,1621 L1531,1645 L1565,1621 L1531,1596 Z M1498,1621 L1486,1659 L1519,1684 L1531,1645 Z M1531,1645 L1565,1621 L1577,1659 L1544,1684 Z M1457,1621 L1498,1621 L1486,1659 L1445,1659 Z M1424,1596 L1411,1635 L1445,1659 L1457,1621 Z M1445,1659 L1486,1659 L1498,1698 L1457,1698 Z M1411,1684 L1445,1659 L1457,1698 L1424,1723 Z M1378,1659 L1411,1684 L1445,1659 L1411,1635 Z M1337,1659 L1325,1698 L1358,1723 L1371,1684 Z M1325,1621 L1292,1645 L1304,1684 L1337,1659 Z M1371,1684 L1411,1684 L1424,1723 L1383,1723 Z M1350,1621 L1391,1621 L1378,1659 L1337,1659 Z M1325,1698 L1358,1723 L1325,1747 L1292,1723 Z M1358,1723 L1325,1747 L1337,1786 L1371,1761 Z M1337,1786 L1378,1786 L1391,1825 L1350,1825 Z M1350,1825 L1337,1863 L1371,1888 L1383,1849 Z M1325,1825 L1292,1849 L1304,1888 L1337,1863 Z M1296,1786 L1337,1786 L1325,1825 L1284,1825 Z M1263,1761 L1251,1800 L1284,1825 L1296,1786 Z M1251,1849 L1292,1849 L1304,1888 L1263,1888 Z M1251,1800 L1284,1825 L1251,1849 L1217,1825 Z M1217,1825 L1184,1849 L1197,1888 L1230,1863 Z M1230,1863 L1217,1902 L1251,1926 L1263,1888 Z M1164,1786 L1205,1786 L1217,1825 L1177,1825 Z M1143,1849 L1184,1849 L1172,1888 L1131,1888 Z M1143,1800 L1177,1825 L1143,1849 L1110,1825 Z M1131,1761 L1098,1786 L1110,1825 L1143,1800 Z M1110,1825 L1098,1863 L1131,1888 L1143,1849 Z M1110,1825 L1069,1825 L1057,1863 L1098,1863 Z M1098,1786 L1057,1786 L1069,1825 L1110,1825 Z M1098,1863 L1131,1888 L1098,1912 L1064,1888 Z M1057,1786 L1024,1810 L1036,1849 L1069,1825 Z M1036,1926 L1024,1965 L1057,1990 L1069,1951 Z M990,1912 L949,1912 L937,1951 L978,1951 Z M1011,1926 L978,1951 L990,1990 L1024,1965 Z M949,1863 L983,1888 L949,1912 L916,1888 Z M937,1825 L904,1849 L916,1888 L949,1863 Z M916,1888 L904,1926 L937,1951 L949,1912 Z M916,1888 L875,1888 L863,1926 L904,1926 Z M904,1849 L863,1849 L875,1888 L916,1888 Z M904,1926 L870,1951 L883,1990 L916,1965 Z M830,1902 L863,1926 L830,1951 L796,1926 Z M817,1863 L784,1888 L796,1926 L830,1902 Z M784,1888 L743,1888 L755,1926 L796,1926 Z M784,1965 L817,1990 L784,2014 L751,1990 Z M784,1965 L796,1926 L830,1951 L817,1990 Z M784,1965 L743,1965 L755,1926 L796,1926 Z M743,1888 L710,1912 L722,1951 L755,1926 Z M870,2028 L830,2028 L842,1990 L883,1990 Z M870,1951 L830,1951 L842,1990 L883,1990 Z M916,1965 L949,1990 L916,2014 L883,1990 Z M978,1951 L937,1951 L949,1990 L990,1990 Z M1024,1965 L1057,1990 L1024,2014 L990,1990 Z M978,2028 L937,2028 L949,1990 L990,1990 Z M1110,2028 L1069,2028 L1057,1990 L1098,1990 Z M1131,1965 L1164,1990 L1131,2014 L1098,1990 Z M1110,1951 L1069,1951 L1057,1990 L1098,1990 Z M1098,1912 L1057,1912 L1069,1951 L1110,1951 Z M1143,1926 L1131,1965 L1164,1990 L1177,1951 Z M1131,1888 L1098,1912 L1110,1951 L1143,1926 Z M1131,1888 L1172,1888 L1184,1926 L1143,1926 Z M1177,1951 L1217,1951 L1205,1990 L1164,1990 Z M1217,1902 L1251,1926 L1217,1951 L1184,1926 Z M1177,2028 L1217,2028 L1205,1990 L1164,1990 Z M1263,1965 L1230,1990 L1217,1951 L1251,1926 Z M1263,1965 L1296,1990 L1263,2014 L1230,1990 Z M1263,1965 L1304,1965 L1292,1926 L1251,1926 Z M1263,1888 L1304,1888 L1292,1926 L1251,1926 Z M1304,1888 L1292,1926 L1325,1951 L1337,1912 Z M1337,1863 L1371,1888 L1337,1912 L1304,1888 Z M1383,1926 L1350,1951 L1337,1912 L1371,1888 Z M1383,1926 L1424,1926 L1411,1888 L1371,1888 Z M1383,1926 L1424,1926 L1411,1965 L1371,1965 Z M1383,1849 L1424,1849 L1411,1888 L1371,1888 Z M1445,1863 L1478,1888 L1445,1912 L1411,1888 Z M1457,1825 L1445,1863 L1478,1888 L1490,1849 Z M1445,1786 L1411,1810 L1424,1849 L1457,1825 Z M1445,1786 L1486,1786 L1498,1825 L1457,1825 Z M1490,1849 L1531,1849 L1519,1888 L1478,1888 Z M1498,1825 L1531,1849 L1565,1825 L1531,1800 Z M1486,1786 L1519,1761 L1531,1800 L1498,1825 Z M1544,1888 L1577,1863 L1565,1825 L1531,1849 Z M1490,1926 L1457,1951 L1445,1912 L1478,1888 Z M1577,1786 L1618,1786 L1605,1825 L1565,1825 Z M1605,1747 L1639,1723 L1651,1761 L1618,1786 Z M1651,1810 L1618,1786 L1651,1761 L1684,1786 Z M1664,1723 L1705,1723 L1692,1761 L1651,1761 Z M1692,1684 L1725,1659 L1738,1698 L1705,1723 Z M1738,1747 L1705,1723 L1738,1698 L1771,1723 Z M1771,1645 L1738,1621 L1771,1596 L1804,1621 Z M1771,1645 L1758,1684 L1725,1659 L1738,1621 Z M1771,1645 L1812,1645 L1799,1684 L1758,1684 Z M1758,1558 L1799,1558 L1812,1596 L1771,1596 Z M1725,1582 L1758,1558 L1771,1596 L1738,1621 Z M1697,1621 L1738,1621 L1725,1659 L1684,1659 Z M1684,1582 L1725,1582 L1738,1621 L1697,1621 Z M1651,1684 L1692,1684 L1705,1723 L1664,1723 Z M1618,1659 L1651,1684 L1684,1659 L1651,1635 Z M1618,1659 L1605,1698 L1639,1723 L1651,1684 Z M1605,1621 L1639,1596 L1651,1635 L1618,1659 Z M1577,1659 L1618,1659 L1605,1698 L1565,1698 Z M1565,1621 L1605,1621 L1618,1659 L1577,1659 Z M1544,1761 L1531,1800 L1565,1825 L1577,1786 Z M1565,1747 L1605,1747 L1618,1786 L1577,1786 Z M1572,1723 L1605,1747 L1639,1723 L1605,1698 Z M1457,1747 L1498,1747 L1486,1786 L1445,1786 Z M1424,1723 L1457,1747 L1490,1723 L1457,1698 Z M1424,1723 L1411,1761 L1445,1786 L1457,1747 Z M1411,1761 L1445,1786 L1411,1810 L1378,1786 Z M1383,1723 L1424,1723 L1411,1761 L1371,1761 Z M1577,1582 L1618,1582 L1605,1621 L1565,1621 Z M1544,1558 L1531,1596 L1565,1621 L1577,1582 Z M1651,1558 L1639,1596 L1672,1621 L1684,1582 Z M1585,1558 L1618,1582 L1651,1558 L1618,1533 Z M1572,1519 L1605,1494 L1618,1533 L1585,1558 Z M1664,1519 L1705,1519 L1692,1558 L1651,1558 Z M1692,1558 L1725,1582 L1758,1558 L1725,1533 Z M1771,1519 L1812,1519 L1799,1558 L1758,1558 Z M1845,1543 L1878,1519 L1891,1558 L1858,1582 Z M1845,1543 L1812,1519 L1845,1494 L1878,1519 Z M1845,1543 L1833,1582 L1799,1558 L1812,1519 Z M1932,1480 L1919,1519 L1886,1494 L1899,1456 Z M664,1926 L676,1888 L710,1912 L697,1951 Z M664,1926 L623,1926 L636,1965 L676,1965 Z M664,1926 L623,1926 L636,1888 L676,1888 Z M557,1926 L569,1888 L602,1912 L590,1951 Z M470,1863 L482,1825 L516,1849 L503,1888 Z M796,1849 L755,1849 L743,1888 L784,1888 Z M830,1825 L817,1863 L850,1888 L863,1849 Z M904,1800 L937,1825 L904,1849 L870,1825 Z M978,1825 L937,1825 L949,1863 L990,1863 Z M990,1786 L978,1825 L1011,1849 L1024,1810 Z M990,1786 L949,1786 L937,1825 L978,1825 Z M978,1747 L937,1747 L949,1786 L990,1786 Z M1024,1761 L1057,1786 L1024,1810 L990,1786 Z M1011,1723 L978,1747 L990,1786 L1024,1761 Z M1036,1723 L1024,1761 L1057,1786 L1069,1747 Z M1024,1684 L983,1684 L970,1723 L1011,1723 Z M1064,1684 L1024,1684 L1036,1723 L1077,1723 Z M1110,1698 L1143,1723 L1110,1747 L1077,1723 Z M1110,1747 L1069,1747 L1057,1786 L1098,1786 Z M1143,1723 L1131,1761 L1164,1786 L1177,1747 Z M1131,1684 L1172,1684 L1184,1723 L1143,1723 Z M1177,1747 L1217,1747 L1205,1786 L1164,1786 Z M1217,1698 L1251,1723 L1217,1747 L1184,1723 Z M1251,1723 L1217,1747 L1230,1786 L1263,1761 Z M1251,1723 L1292,1723 L1304,1761 L1263,1761 Z M1263,1684 L1304,1684 L1292,1723 L1251,1723 Z M1251,1645 L1292,1645 L1304,1684 L1263,1684 Z M1230,1659 L1217,1698 L1251,1723 L1263,1684 Z M1251,1596 L1284,1621 L1251,1645 L1217,1621 Z M1205,1659 L1172,1684 L1184,1723 L1217,1698 Z M1177,1621 L1217,1621 L1205,1659 L1164,1659 Z M1098,1659 L1064,1684 L1077,1723 L1110,1698 Z M1024,1635 L1057,1659 L1024,1684 L990,1659 Z M1337,1582 L1378,1582 L1391,1621 L1350,1621 Z M1378,1582 L1411,1558 L1424,1596 L1391,1621 Z M1383,1519 L1424,1519 L1411,1558 L1371,1558 Z M1411,1480 L1445,1456 L1457,1494 L1424,1519 Z M1457,1417 L1498,1417 L1486,1456 L1445,1456 Z M1424,1392 L1457,1417 L1490,1392 L1457,1368 Z M1424,1392 L1411,1431 L1445,1456 L1457,1417 Z M1498,1417 L1531,1392 L1544,1431 L1511,1456 Z M1544,1354 L1585,1354 L1572,1392 L1531,1392 Z M1572,1392 L1605,1417 L1639,1392 L1605,1368 Z M1531,1315 L1565,1291 L1577,1329 L1544,1354 Z M1565,1291 L1605,1291 L1618,1329 L1577,1329 Z M1577,1252 L1618,1252 L1605,1291 L1565,1291 Z M1565,1213 L1605,1213 L1618,1252 L1577,1252 Z M1544,1227 L1531,1266 L1565,1291 L1577,1252 Z M1572,1189 L1605,1213 L1639,1189 L1605,1164 Z M1457,1213 L1498,1213 L1486,1252 L1445,1252 Z M1445,1125 L1486,1125 L1498,1164 L1457,1164 Z M1424,1189 L1457,1213 L1490,1189 L1457,1164 Z M1424,1189 L1411,1227 L1445,1252 L1457,1213 Z M1383,1189 L1424,1189 L1411,1227 L1371,1227 Z M1337,1252 L1378,1252 L1391,1291 L1350,1291 Z M1350,1291 L1391,1291 L1378,1329 L1337,1329 Z M1378,1252 L1411,1227 L1424,1266 L1391,1291 Z M1391,1291 L1424,1315 L1457,1291 L1424,1266 Z M1391,1291 L1378,1329 L1411,1354 L1424,1315 Z M1411,1354 L1445,1329 L1457,1368 L1424,1392 Z M1304,1354 L1337,1378 L1371,1354 L1337,1329 Z M1304,1354 L1292,1392 L1325,1417 L1337,1378 Z M1371,1354 L1411,1354 L1424,1392 L1383,1392 Z M1383,1392 L1424,1392 L1411,1431 L1371,1431 Z M1337,1378 L1371,1354 L1383,1392 L1350,1417 Z M1292,1315 L1325,1291 L1337,1329 L1304,1354 Z M1263,1354 L1304,1354 L1292,1392 L1251,1392 Z M1478,1354 L1519,1354 L1531,1392 L1490,1392 Z M1457,1291 L1498,1291 L1486,1329 L1445,1329 Z M1498,1291 L1531,1315 L1565,1291 L1531,1266 Z M1498,1291 L1486,1329 L1519,1354 L1531,1315 Z M1486,1252 L1519,1227 L1531,1266 L1498,1291 Z M1445,1252 L1486,1252 L1498,1291 L1457,1291 Z M1605,1213 L1639,1189 L1651,1227 L1618,1252 Z M1738,1291 L1771,1315 L1804,1291 L1771,1266 Z M1738,1291 L1725,1329 L1758,1354 L1771,1315 Z M1697,1291 L1738,1291 L1725,1329 L1684,1329 Z M1684,1125 L1725,1125 L1738,1087 L1697,1087 Z M1684,1048 L1725,1048 L1738,1087 L1697,1087 Z M1758,1101 L1771,1062 L1804,1087 L1792,1125 Z M1792,1125 L1833,1125 L1845,1087 L1804,1087 Z M1845,1164 L1858,1125 L1891,1150 L1878,1189 Z M1799,1150 L1833,1125 L1845,1164 L1812,1189 Z M1919,1111 L1952,1087 L1965,1125 L1932,1150 Z M1692,1024 L1725,1048 L1758,1024 L1725,999 Z M1684,999 L1725,999 L1738,960 L1697,960 Z M1845,883 L1878,858 L1891,897 L1858,922 Z M1878,858 L1919,858 L1932,897 L1891,897 Z M1878,858 L1919,858 L1932,820 L1891,820 Z M1845,834 L1858,795 L1891,820 L1878,858 Z M1891,820 L1932,820 L1919,781 L1878,781 Z M1799,897 L1812,858 L1845,883 L1833,922 Z M1684,465 L1725,465 L1738,426 L1697,426 Z M1585,489 L1618,514 L1651,489 L1618,465 Z M1544,159 L1531,198 L1565,222 L1577,184 Z M1490,198 L1531,198 L1519,159 L1478,159 Z M1490,121 L1478,159 L1445,135 L1457,96 Z M978,300 L937,300 L949,261 L990,261 Z M796,324 L830,300 L817,261 L784,286 Z M796,324 L755,324 L743,286 L784,286 Z M784,286 L796,247 L763,222 L751,261 Z M784,363 L743,363 L755,324 L796,324 Z M722,349 L689,324 L722,300 L755,324 Z M751,261 L710,261 L722,222 L763,222 Z M796,247 L763,222 L796,198 L830,222 Z M710,514 L676,489 L710,465 L743,489 Z M664,528 L623,528 L636,489 L676,489 Z M636,489 L669,465 L656,426 L623,451 Z M602,514 L569,489 L602,465 L636,489 Z M602,465 L561,465 L549,426 L590,426 Z M590,426 L549,426 L561,388 L602,388 Z M549,426 L561,388 L528,363 L516,402 Z M528,489 L561,465 L549,426 L516,451 Z M516,451 L482,426 L516,402 L549,426 Z M516,528 L475,528 L462,489 L503,489 Z M503,489 L516,451 L482,426 L470,465 Z M557,528 L516,528 L528,489 L569,489 Z M475,528 L442,553 L429,514 L462,489 Z M462,489 L429,465 L396,489 L429,514 Z M429,591 L396,567 L363,591 L396,616 Z M429,591 L442,553 L408,528 L396,567 Z M470,591 L429,591 L442,553 L482,553 Z M470,465 L429,465 L442,426 L482,426 Z M482,426 L516,402 L503,363 L470,388 Z M482,426 L442,426 L429,388 L470,388 Z M470,388 L429,388 L442,349 L482,349 Z M590,349 L557,324 L590,300 L623,324 Z M590,300 L549,300 L561,261 L602,261 Z M442,349 L408,324 L442,300 L475,324 Z M429,388 L396,363 L363,388 L396,412 Z M429,388 L442,349 L408,324 L396,363 Z M248,567 L214,591 L202,553 L235,528 Z M95,630 L82,669 L115,693 L128,655 Z M309,756 L276,732 L243,756 L276,781 Z M569,693 L528,693 L516,655 L557,655 Z M623,655 L590,630 L557,655 L590,679 Z M623,655 L636,616 L602,591 L590,630 Z M636,693 L602,718 L590,679 L623,655 Z M664,655 L623,655 L636,616 L676,616 Z M676,693 L710,669 L697,630 L664,655 Z M676,693 L636,693 L623,655 L664,655 Z M656,756 L623,732 L590,756 L623,781 Z M656,756 L669,718 L636,693 L623,732 Z M697,756 L656,756 L669,718 L710,718 Z M1217,834 L1230,795 L1263,820 L1251,858 Z M1184,858 L1217,834 L1205,795 L1172,820 Z M1184,858 L1217,883 L1251,858 L1217,834 Z M255,922 L214,922 L202,960 L243,960 Z M355,1354 L322,1329 L289,1354 L322,1378 Z M322,1378 L309,1417 L276,1392 L289,1354 Z M276,1392 L235,1392 L248,1431 L289,1431 Z M248,1354 L235,1392 L202,1368 L214,1329 Z M248,1480 L235,1519 L202,1494 L214,1456 Z M1263,1024 L1304,1024 L1292,985 L1251,985 Z M1263,1024 L1304,1024 L1292,1062 L1251,1062 Z M1304,1024 L1337,999 L1325,960 L1292,985 Z M1304,1024 L1337,1048 L1371,1024 L1337,999 Z M1304,1024 L1292,1062 L1325,1087 L1337,1048 Z M1197,1024 L1230,999 L1217,960 L1184,985 Z M1197,1024 L1230,1048 L1263,1024 L1230,999 Z M1197,1024 L1184,1062 L1217,1087 L1230,1048 Z M817,1659 L784,1684 L796,1723 L830,1698 Z " fill="rgb(43, 144, 253)"/>
</g></svg>